<svg width="121" height="29" fill="none" xmlns="http://www.w3.org/2000/svg"><path fill-rule="evenodd" clip-rule="evenodd" d="M14.87 28.803v-6.827s-.97.04-.97-3.9c0-.615.888-1.259 1.48-1.634 1.527-.975 1.294-3.73 1.914-3.73 1.659 0 1.455-1.521 1.455-2.438 0-1.053-1.454 0-1.454 0V4.423H5.657v5.85s-1.454-.711-1.454.488c0 .708-.282 1.463.97 1.95.969.381 1.604 2.239 2.045 3.317.442 1.077 1.736 1.106 1.736 2.057 0 3.516-.873 3.901-.873 3.901v6.826l6.788-.01z" fill="#fff"/><path fill-rule="evenodd" clip-rule="evenodd" d="M12.446 28.803h2.424v-6.827s-.97.04-.97-3.9c0-.615.888-1.259 1.48-1.634 1.527-.975 1.294-3.73 1.914-3.73 1.659 0 1.455-1.521 1.455-2.438 0-1.053-1.454 0-1.454 0l.058-.385-.059-5.466h-3.878s2.075 2.881 1.94 6.338c-.103 2.56-2.013 5.774-3.395 6.827-.33.249.485 11.215.485 11.215z" fill="#F1EEE9"/><path fill-rule="evenodd" clip-rule="evenodd" d="M17.867 9.962s2.831-8.953-6.876-8.953c-2.09 0-3.81.649-4.615 1.517-.514.55-.364 1.194-.63 1.809C5.26 5.432 4.678 5.627 4.717 6.64c.063 1.136.197 2.266.402 3.384 0 .073.427.346.538.283.112-.063 0-.449.049-.546.15-1.244 0-4.852 2.375-4.852 1.038 0 2.289 1.102 3.394.975.97-.117 1.988-.975 2.91-.975 2.03 0 2.506 3.55 2.909 4.876.016.128.016.258 0 .386v.102c0 .034.436-.263.572-.312z" fill="#39322B"/><path fill-rule="evenodd" clip-rule="evenodd" d="M8.078 9.162a5.16 5.16 0 01-1.455-.395 1.453 1.453 0 011.455-.395c.906.21 2.123.488 1.939.79-.155.23-1.25.107-1.94 0zM14.875 9.162c.502-.06.992-.193 1.455-.395a1.453 1.453 0 00-1.455-.395c-.906.21-2.123.488-1.94.79.156.23 1.252.107 1.94 0z" fill="#39322B"/><path fill-rule="evenodd" clip-rule="evenodd" d="M11.462 13.687c.97 0 .97-.288.97-.288v.532a.244.244 0 01-.243.244h-1.44a.242.242 0 01-.242-.244v-.522s-.02.278.955.278z" fill="#F1EEE9"/><path fill-rule="evenodd" clip-rule="evenodd" d="M14.87 25.877v2.926H8.082v-2.926s1.741 2.438 3.394 2.438c1.736 0 3.394-2.438 3.394-2.438z" fill="#BED6CE"/><path fill-rule="evenodd" clip-rule="evenodd" d="M8.082 21.976c-.773.406-1.585.733-2.424.976-1.27.365-2.778.487-3.879 1.462C.325 25.687.325 28.803.325 28.803h7.757v-6.827zM14.87 21.976c.774.406 1.586.733 2.425.976 1.27.365 2.778.487 3.878 1.462 1.455 1.273 1.455 4.389 1.455 4.389H14.87v-6.827z" fill="#009F90"/><path fill-rule="evenodd" clip-rule="evenodd" d="M8.082 21.976s-1.537.303-1.939.976c-.315.526.485 1.462.485 1.462v1.463s-.97.517-.97.975c0 .459.718.898.97 1.273a.587.587 0 010 .678h1.454v-6.827zM14.87 21.976s1.537.303 1.94.976c.315.526-.485 1.462-.485 1.462v1.463s.97.517.97.975c0 .459-.728.898-.956 1.273a.588.588 0 000 .678h-1.454l-.015-6.827z" fill="#006C71"/><path d="M31.127 24.902c1.473 0 2.667-2.402 2.667-5.364 0-2.962-1.194-5.363-2.667-5.363-1.473 0-2.666 2.4-2.666 5.363 0 2.962 1.194 5.364 2.666 5.364zM39.37 24.902c1.472 0 2.666-2.402 2.666-5.364 0-2.962-1.194-5.363-2.666-5.363-1.473 0-2.667 2.4-2.667 5.363 0 2.962 1.194 5.364 2.667 5.364z" fill="#39322B"/><path fill-rule="evenodd" clip-rule="evenodd" d="M40.097 7.836L30.4 9.786s-.485 1.522 0 4.876c.107.707.902 1.429 1.455 1.95.552.522.97.337.97 3.414s-2.764 2.618-5.334 3.9c-2.424 1.21-2.424 4.877-2.424 4.877h20.848s-.31-3.97-1.94-4.876c-2.137-1.195-6.302-.366-6.302-3.901 0-1.882-.04-2.272.97-3.413.334-.38 1.352-.976 1.454-1.463a19.736 19.736 0 000-7.314z" fill="#fff"/><path fill-rule="evenodd" clip-rule="evenodd" d="M35.733 28.803h10.182s-.31-3.97-1.94-4.876c-2.137-1.195-6.302-.366-6.302-3.901 0-1.882-.04-2.272.97-3.413.334-.38 1.352-.976 1.454-1.463.34-1.921 1.042-5.013.65-6.914-.107-.517-.97.102-1.135-.4 0 0 .582 2.54-.679 5.963-.654 1.775-3.093 3.17-3.093 4.784 0 5.739-.107 10.22-.107 10.22z" fill="#F1EEE9"/><path fill-rule="evenodd" clip-rule="evenodd" d="M41.551 23.44s2.91-3.073 2.91-6.34c0-3.564-1.62-4.125-1.455-6.339.441-5.973-1.881-9.264-7.758-9.264-6.303 0-8.455 4.223-7.757 9.752.208 1.643-1.455 2.394-1.455 4.876 0 3.989 2.91 7.314 2.91 7.314s.97-.566 1.076-1.414c.106-.848-.727-2.019-.456-3.17.35-1.462 1.169-2.676 1.319-4.193.228-2.272-.81-4.388-.485-4.388 1.236 0 4.446.917 6.303 0 1.857-.917 2.822-2.716 3.433-1.79.397.624-.78 3.662-.01 7.45.257 1.293.824 2.439.902 3.926.053 1.068-.446 1.463-.446 2.126 0 1.536.97 1.453.97 1.453z" fill="#009F90"/><path fill-rule="evenodd" clip-rule="evenodd" d="M37.188 15.301c-.635-.249-1.27-.639-1.94-.639-.669 0-1.299.39-1.939.639 0 0 1.203 1.312 1.94 1.312.736 0 1.939-1.312 1.939-1.312z" fill="#39322B"/><path fill-rule="evenodd" clip-rule="evenodd" d="M32.34 23.927l-2.425 4.876h11.636l-2.909-4.876H32.34z" fill="#006C71"/><path fill-rule="evenodd" clip-rule="evenodd" d="M31.685 22.386l-.97.434s2.449 2.082 4.747 2.082 4.688-2.009 4.688-2.009l-1.086-.41s-2.036.976-3.622.976c-1.585 0-3.757-1.073-3.757-1.073z" fill="#009F90"/><path fill-rule="evenodd" clip-rule="evenodd" d="M63.84 28.803s1.455-2.877 1.455-4.876c0-.844-1.455-1.95-1.455-1.95s-.97.038-.97-3.902c0-.614.888-1.258 1.48-1.633 1.526-.975 1.294-3.73 1.914-3.73 1.658 0 1.455-1.522 1.455-2.438 0-1.053-1.455 0-1.455 0V4.422H54.628v5.852s-1.455-.712-1.455.487c0 .707-.28 1.463.97 1.95.97.381 1.605 2.239 2.046 3.316.441 1.078 1.736 1.107 1.736 2.058 0 3.516-.873 3.901-.873 3.901s-1.94 1.14-1.94 1.463c0 1.584 1.94 5.363 1.94 5.363l6.788-.01z" fill="#fff"/><path fill-rule="evenodd" clip-rule="evenodd" d="M60.446 28.803h3.394s1.455-3.482 1.455-5.364c0-.585-1.455-1.463-1.455-1.463s-.97.04-.97-3.9c0-.615.888-1.259 1.48-1.634 1.526-.975 1.294-3.73 1.914-3.73 1.658 0 1.455-1.522 1.455-2.438 0-1.053-1.455 0-1.455 0V4.422h-3.878c.6 2.227.926 4.52.97 6.827 0 4.388-1.043 5.286-2.425 6.339a5.15 5.15 0 00-.485 2.438v8.777z" fill="#F1EEE9"/><path fill-rule="evenodd" clip-rule="evenodd" d="M54.672 9.733c-.049.121.048.419-.049.487s-.417-.122-.485-.141a30.227 30.227 0 01-.426-3.492c-.044-1.009.547-1.209 1.022-2.306.267-.614.117-1.253.63-1.809.806-.868 2.527-2.492 4.617-2.492 4.106 0 5.953 1.834 6.72 3.95a.566.566 0 00.552.439c.548.034 1.455-.298 1.455 0 0 .678-1.58.795-1.58 1.492 0 .488 1.095-.224 1.095-.03 0 .488-1.096 1.034-1.144 1.464-.049.429.286.877.174 1.462-.137.337-.299.663-.484.976 0 0-.34.487-.485.487-.068 0 0-.385 0-.487 0-2.502-1.179-1.614-1.94-1.95a8.556 8.556 0 01-1.94-1.62c-.644-.712-1.003-1.385-2.2-1.385-.81 0-1.794.371-2.677.517-.625.103-1.14-.092-1.634.337-.494.429-1.178 3.735-1.221 4.1z" fill="#009F90"/><path fill-rule="evenodd" clip-rule="evenodd" d="M65.78 13.2a2.29 2.29 0 00-.97.487c-.403.302-.873.858-1.455.975-.93.185-.97-.488-3.151-.488-2.182 0-2.221.669-3.152.488-.548-.112-1.062-.692-1.454-.975a2.29 2.29 0 00-.97-.488.91.91 0 00-.485.976c.567 1.901 2.87 5.85 6.041 5.85 3.171 0 5.508-3.959 6.08-5.85a.927.927 0 00-.485-.976zm-5.576 1.95c1.454 0 2.666 0 2.666.487a1.534 1.534 0 01-1.212.898c-.417.048-.717-.42-1.454-.41-.737.01-1.043.458-1.455.405a1.484 1.484 0 01-1.202-.893c-.01-.478 1.202-.487 2.657-.487zM57.047 9.65c-1.061-.171-1.94-.405-1.94-.395a2.895 2.895 0 011.94-.395c.907.21 2.124.487 1.94.79-.155.229-1.251.107-1.94 0zM63.845 9.65c1.062-.171 1.94-.405 1.94-.395a2.896 2.896 0 00-1.94-.395c-.907.21-2.124.487-1.94.79.156.229 1.251.107 1.94 0z" fill="#39322B"/><path fill-rule="evenodd" clip-rule="evenodd" d="M64.81 22.464c.46.228.95.392 1.454.488 1.27.365 2.778.487 3.879 1.462 1.455 1.273 1.455 4.389 1.455 4.389H49.295s0-3.116 1.454-4.389c1.086-.975 2.594-1.072 3.879-1.463.504-.095.994-.26 1.454-.487 0 0 .97 5.364 4.194 5.364 3.545 0 4.534-5.364 4.534-5.364z" fill="#006C71"/><path fill-rule="evenodd" clip-rule="evenodd" d="M80.824 16.125l-2.909 7.802 8.727-.976.485-1.95 2.425-4.388.484-2.438-9.212 1.95z" fill="#39322B"/><path fill-rule="evenodd" clip-rule="evenodd" d="M89.067 7.836S88.209 5.08 87 5.325c-2.846.57-7.631 4.461-7.631 4.461s-.485 1.522 0 4.876c.106.707.901 1.429 1.454 1.95.553.523.97.337.97 3.414s-2.764 2.618-5.333 3.9c-2.425 1.21-2.425 4.877-2.425 4.877h20.849s-.31-3.97-1.94-4.876c-2.138-1.195-6.303-.366-6.303-3.901 0-1.882-.038-2.272.97-3.413.335-.38 1.353-.976 1.455-1.463a19.736 19.736 0 000-7.314z" fill="#fff"/><path fill-rule="evenodd" clip-rule="evenodd" d="M90.521 13.687l-.485-5.851S88.946 5.842 88 5.096c-.727-.576-1.367 0-1.358.302.044 1.063 1.523 6.383.776 8.401-.654 1.775-2.603 3.17-2.603 4.784 0 5.739-.112 10.24-.112 10.24h10.182s-.31-3.97-1.94-4.877c-2.138-1.194-6.302-.366-6.302-3.9a5.143 5.143 0 01.184-2.244c.18-.439.448-.837.785-1.17.437-.439 1.358-.882 1.794-1.321.533-.556.582-1.088 1.115-1.624z" fill="#F1EEE9"/><path fill-rule="evenodd" clip-rule="evenodd" d="M86.158 15.301c-.636-.249-1.295-.639-1.94-.639s-1.3.39-1.94.639c0 0 1.203 1.312 1.94 1.312.737 0 1.94-1.312 1.94-1.312zM87.505 9.835c.355-.07.716-.1 1.077-.093a1.453 1.453 0 00-1.455-.395c-.906.21-1.653.976-1.454 1.278.17.22 1.197-.722 1.832-.79z" fill="#39322B"/><path fill-rule="evenodd" clip-rule="evenodd" d="M87.127 21.976a18.523 18.523 0 003.54-6.865c1.58-5.783 1.246-13.614-6.934-13.614-12.194 0-5.818 21.942-5.818 21.942a1.286 1.286 0 001.096-.775c.441-.888.533-2.238 1.236-3.77 1.3-2.67 2.86-5.204 4.655-7.567 1.43-1.921 2.327-4.466 2.71-4.466.824 0 1.687 2.213 1.687 6.338 0 2.794-1.58 5.613-2.36 7.28a1.274 1.274 0 00.188 1.497z" fill="#ABAAA5"/><path fill-rule="evenodd" clip-rule="evenodd" d="M81.794 21.489c.776.294 1.595.46 2.424.487a7.718 7.718 0 002.424-.487l.485.487a8.942 8.942 0 01-5.818 0l.485-.487z" fill="#39322B"/><path fill-rule="evenodd" clip-rule="evenodd" d="M84.703 28.803s-.485-2.438-3.617-2.438-3.656 2.438-3.656 2.438h7.273z" fill="#006C71"/><path fill-rule="evenodd" clip-rule="evenodd" d="M91.49 28.803s-.484-2.438-3.616-2.438-3.656 2.438-3.656 2.438h7.273z" fill="#006C71"/><path fill-rule="evenodd" clip-rule="evenodd" d="M114.749 12.712c-.62 0-.388 2.755-1.915 3.73-.592.375-1.479 1.02-1.479 1.634 0 3.94.97 3.9.97 3.9v6.827H97.779s0-3.116 1.455-4.389c1.086-.975 2.594-1.072 3.879-1.463a12.98 12.98 0 002.424-.975s.873-.375.873-3.9c0-.951-1.319-1.034-1.736-2.058-.417-1.024-1.091-2.926-2.046-3.316-1.251-.488-.97-1.243-.97-1.95 0-1.2 1.455-.488 1.455-.488V4.413h11.636v5.851s1.455-1.053 1.455 0c0 .927.203 2.448-1.455 2.448z" fill="#fff"/><path fill-rule="evenodd" clip-rule="evenodd" d="M112.325 28.803h-2.909s-.33-10.966 0-11.215c1.382-1.053 3.292-4.267 3.394-6.827.135-3.457-1.94-6.338-1.94-6.338h3.879v5.85s1.455-1.052 1.455 0c0 .918.203 2.439-1.455 2.439-.621 0-.388 2.755-1.915 3.73-.592.375-1.479 1.02-1.479 1.634 0 3.94.97 3.9.97 3.9.773.406 1.586.733 2.424.976 1.27.365 2.778.487 3.879 1.462 1.454 1.273 1.454 4.389 1.454 4.389h-7.757z" fill="#F1EEE9"/><path fill-rule="evenodd" clip-rule="evenodd" d="M114.749 9.786c0 .268-.107.522.16.522.302-.118.577-.295.81-.522.338-.766.504-1.599.485-2.438-.049-.41.484-.19.484-.487 0-1.424-.353-.132-.484-.488-.189-.512-.32-1.463-.485-1.95-.82-2.37-1.94-1.848-2.424-2.438-.204-.264-.18-.976-.97-.976-.238 0 0 .976 0 .976s-1.94-1.683-6.788-.488c-2.589.634-3.457 2.39-3.743 3.608-.097.41-.621-.234-.621 1.268 0 .17.485-.488.485-.488a13.598 13.598 0 000 2.438 3.72 3.72 0 00.485 1.463c.112.225.301.273.533.361.112.04.364.21.437.127.072-.083-.039-.385 0-.488 0 0 .203.073 1.066-.312.762-.341 1.174-.663 1.843-.663.315 0 1.566-.531 1.008-.132-.426.308-1.265.59-1.008.62.708.078 2.225-.303 3.326-.815.688-.317.921-.687 1.605-1.028.388-.196.761.087 1.115-.127.907-.551 1.571-1.463 1.711-1.463.354 0 .102.736.248 1.575.164.803.406 1.589.722 2.345z" fill="#39322B"/><path fill-rule="evenodd" clip-rule="evenodd" d="M105.532 9.65a5.16 5.16 0 01-1.454-.395 1.451 1.451 0 011.454-.395c.907.21 2.124.487 1.94.79-.156.229-1.251.107-1.94 0zM112.33 9.65a5.16 5.16 0 001.454-.395 1.451 1.451 0 00-1.454-.395c-.907.21-2.124.487-1.94.79.155.229 1.251.107 1.94 0z" fill="#39322B"/><path fill-rule="evenodd" clip-rule="evenodd" d="M108.916 14.662c.97 0 .97-.283.97-.283v.527a.242.242 0 01-.242.244h-1.455a.242.242 0 01-.242-.244v-.526s-.005.282.969.282z" fill="#F1EEE9"/><path fill-rule="evenodd" clip-rule="evenodd" d="M106.022 21.001l2.424 1.95h.97l2.424-1.95 1.455 1.463-1.455 2.926-1.939-1.95h-1.94l-1.939 1.95-1.455-2.926L106.022 21z" fill="#009F90"/><path fill-rule="evenodd" clip-rule="evenodd" d="M107.961 23.44l.485-.489h.97l.485.488v.488l-.485.487.969 4.389h-2.909l.97-4.389-.485-.487v-.488z" fill="#006C71"/></svg>