<svg width="30" height="38" fill="none" xmlns="http://www.w3.org/2000/svg"><path fill-rule="evenodd" clip-rule="evenodd" d="M19.075 37.797s1.907-3.773 1.907-6.395c0-1.106-1.907-2.557-1.907-2.557s-1.272.05-1.272-5.116c0-.805 1.163-1.65 1.94-2.142 2.002-1.279 1.697-4.892 2.51-4.892 2.175 0 1.908-1.995 1.908-3.197 0-1.38-1.908 0-1.908 0V5.825H6.993v7.673s-1.907-.933-1.907.64c0 .927-.368 1.918 1.272 2.557 1.272.5 2.105 2.935 2.683 4.349.579 1.413 2.277 1.451 2.277 2.698 0 4.61-1.145 5.115-1.145 5.115S7.63 30.354 7.63 30.776c0 2.078 2.543 7.033 2.543 7.033l8.902-.012z" fill="#fff"/><path fill-rule="evenodd" clip-rule="evenodd" d="M14.624 37.797h4.45s1.908-4.566 1.908-7.034c0-.767-1.907-1.918-1.907-1.918s-1.272.05-1.272-5.116c0-.805 1.163-1.65 1.94-2.142 2.002-1.279 1.697-4.892 2.51-4.892 2.175 0 1.908-1.995 1.908-3.197 0-1.38-1.907 0-1.907 0V5.825h-5.087a36.965 36.965 0 011.272 8.952c0 5.755-1.367 6.932-3.18 8.313a6.753 6.753 0 00-.635 3.197v11.51z" fill="#F1EEE9"/><path fill-rule="evenodd" clip-rule="evenodd" d="M7.051 12.789c-.063.16.064.55-.063.639-.128.09-.547-.16-.636-.185a39.642 39.642 0 01-.56-4.579c-.057-1.323.719-1.586 1.342-3.024.35-.806.152-1.644.826-2.373C9.016 2.13 11.273 0 14.013 0c5.386 0 7.808 2.404 8.813 5.18a.743.743 0 00.725.575c.718.045 1.907-.39 1.907 0 0 .889-2.073 1.042-2.073 1.957 0 .639 1.437-.295 1.437-.039 0 .64-1.437 1.356-1.5 1.918-.064.563.375 1.151.229 1.919-.18.441-.393.869-.636 1.279 0 0-.445.639-.636.639-.089 0 0-.505 0-.64 0-3.28-1.545-2.116-2.543-2.557a11.217 11.217 0 01-2.544-2.123c-.845-.934-1.316-1.816-2.886-1.816-1.062 0-2.353.486-3.51.678-.82.134-1.494-.122-2.143.441-.648.563-1.545 4.898-1.602 5.378z" fill="#009F90"/><path fill-rule="evenodd" clip-rule="evenodd" d="M21.618 17.335a3.002 3.002 0 00-1.272.64c-.528.396-1.144 1.125-1.907 1.278-1.221.243-1.272-.64-4.133-.64-2.861 0-2.912.877-4.133.64-.718-.147-1.392-.908-1.907-1.279a3.001 3.001 0 00-1.272-.64 1.193 1.193 0 00-.636 1.28c.744 2.494 3.764 7.673 7.922 7.673 4.159 0 7.223-5.192 7.974-7.673a1.215 1.215 0 00-.636-1.28zm-7.312 2.558c1.907 0 3.497 0 3.497.639a2.012 2.012 0 01-1.59 1.177c-.547.064-.94-.55-1.907-.538-.967.013-1.367.602-1.908.531a1.945 1.945 0 01-1.576-1.17c-.013-.627 1.576-.64 3.484-.64zM10.167 12.68c-1.393-.224-2.544-.53-2.544-.518a3.797 3.797 0 012.544-.518c1.189.275 2.785.64 2.543 1.036-.204.3-1.64.14-2.543 0zM19.08 12.68c1.393-.224 2.544-.53 2.544-.518a3.797 3.797 0 00-2.543-.518c-1.19.275-2.785.64-2.543 1.036.203.3 1.64.14 2.543 0z" fill="#39322B"/><path fill-rule="evenodd" clip-rule="evenodd" d="M20.346 29.484a7.42 7.42 0 001.908.64c1.665.479 3.643.639 5.086 1.918 1.908 1.669 1.908 5.755 1.908 5.755H0s0-4.086 1.907-5.755c1.425-1.28 3.402-1.407 5.087-1.919a7.42 7.42 0 001.907-.639s1.272 7.034 5.5 7.034c4.648 0 5.945-7.034 5.945-7.034z" fill="#006C71"/></svg>