<svg width="28" height="37" fill="none" xmlns="http://www.w3.org/2000/svg"><path fill-rule="evenodd" clip-rule="evenodd" d="M8.901 20.172l-3.814 10.23 11.444-1.279.636-2.557 3.18-5.755.635-3.197-12.08 2.558z" fill="#39322B"/><path fill-rule="evenodd" clip-rule="evenodd" d="M19.71 9.301s-1.125-3.613-2.708-3.293c-3.732.748-10.008 5.85-10.008 5.85s-.636 1.996 0 6.395c.14.927 1.183 1.874 1.907 2.558.725.684 1.272.441 1.272 4.476S6.55 28.721 3.18 30.402C0 31.988 0 36.797 0 36.797h27.34s-.407-5.205-2.543-6.395c-2.804-1.566-8.266-.48-8.266-5.115 0-2.468-.05-2.98 1.272-4.476.439-.499 1.774-1.279 1.907-1.918a25.881 25.881 0 000-9.592z" fill="#fff"/><path fill-rule="evenodd" clip-rule="evenodd" d="M21.618 16.974l-.636-7.673s-1.43-2.615-2.67-3.593c-.954-.755-1.794 0-1.78.396.056 1.394 1.996 8.37 1.017 11.017-.859 2.328-3.415 4.157-3.415 6.273 0 7.526-.146 13.428-.146 13.428H27.34s-.407-5.205-2.543-6.394c-2.804-1.567-8.266-.48-8.266-5.116a6.744 6.744 0 01.242-2.94 4.63 4.63 0 011.03-1.535c.572-.576 1.78-1.158 2.352-1.733.7-.73.763-1.426 1.463-2.13z" fill="#F1EEE9"/><path fill-rule="evenodd" clip-rule="evenodd" d="M15.895 19.09c-.832-.325-1.697-.837-2.543-.837-.845 0-1.704.512-2.543.838 0 0 1.577 1.72 2.543 1.72.967 0 2.543-1.72 2.543-1.72zM17.663 11.923a6.549 6.549 0 011.411-.122 1.904 1.904 0 00-1.907-.518c-1.189.275-2.168 1.28-1.907 1.676.222.287 1.57-.947 2.403-1.036z" fill="#39322B"/><path fill-rule="evenodd" clip-rule="evenodd" d="M17.167 27.845a24.29 24.29 0 004.641-9.003C23.881 11.258 23.442.988 12.716.988c-15.99 0-7.63 28.774-7.63 28.774a1.686 1.686 0 001.437-1.017c.579-1.163.7-2.935 1.622-4.943a59.413 59.413 0 016.104-9.924c1.875-2.519 3.051-5.857 3.554-5.857 1.08 0 2.212 2.903 2.212 8.313 0 3.664-2.072 7.36-3.096 9.547a1.67 1.67 0 00.248 1.963z" fill="#ABAAA5"/><path fill-rule="evenodd" clip-rule="evenodd" d="M10.173 27.205a9.895 9.895 0 003.18.64 10.12 10.12 0 003.178-.64l.636.64c-2.473.85-5.157.85-7.63 0l.636-.64z" fill="#39322B"/><path fill-rule="evenodd" clip-rule="evenodd" d="M13.988 36.797S13.352 33.6 9.245 33.6c-4.108 0-4.794 3.197-4.794 3.197h9.537z" fill="#006C71"/><path fill-rule="evenodd" clip-rule="evenodd" d="M22.89 36.797s-.636-3.197-4.744-3.197c-4.107 0-4.794 3.197-4.794 3.197h9.537z" fill="#006C71"/></svg>