<svg width="30" height="37" fill="none" xmlns="http://www.w3.org/2000/svg"><path fill-rule="evenodd" clip-rule="evenodd" d="M19.4 36.797v-8.952s-1.272.05-1.272-5.116c0-.805 1.163-1.65 1.939-2.142 2.003-1.279 1.698-4.891 2.511-4.891 2.175 0 1.908-1.995 1.908-3.198 0-1.38-1.908 0-1.908 0V4.825H7.318v7.673s-1.907-.933-1.907.64c0 .927-.368 1.918 1.272 2.558 1.272.498 2.105 2.935 2.683 4.348.579 1.413 2.276 1.451 2.276 2.698 0 4.61-1.144 5.116-1.144 5.116v8.951l8.901-.012z" fill="#fff"/><path fill-rule="evenodd" clip-rule="evenodd" d="M16.22 36.797h3.18v-8.952s-1.272.05-1.272-5.116c0-.805 1.163-1.65 1.939-2.142 2.003-1.279 1.698-4.891 2.511-4.891 2.175 0 1.908-1.995 1.908-3.198 0-1.38-1.908 0-1.908 0l.077-.505-.077-7.168h-5.086s2.721 3.78 2.543 8.313c-.133 3.357-2.639 7.57-4.45 8.952-.433.326.635 14.707.635 14.707z" fill="#F1EEE9"/><path fill-rule="evenodd" clip-rule="evenodd" d="M23.329 12.09S27.042.35 14.313.35c-2.74 0-4.998.85-6.053 1.988-.674.722-.477 1.567-.827 2.372-.636 1.439-1.399 1.695-1.348 3.025a35.8 35.8 0 00.528 4.437c0 .096.56.454.706.371.146-.083 0-.588.063-.716.198-1.63 0-6.362 3.116-6.362 1.36 0 3.001 1.445 4.45 1.279 1.272-.154 2.607-1.28 3.816-1.28 2.664 0 3.287 4.656 3.814 6.395.022.168.022.338 0 .505v.134c0 .045.573-.345.75-.409z" fill="#39322B"/><path fill-rule="evenodd" clip-rule="evenodd" d="M10.492 11.04a6.769 6.769 0 01-1.908-.517 1.905 1.905 0 011.908-.518c1.188.275 2.784.64 2.543 1.035-.204.301-1.64.141-2.543 0zM19.406 11.04a6.77 6.77 0 001.907-.517 1.905 1.905 0 00-1.907-.518c-1.19.275-2.785.64-2.543 1.035.203.301 1.64.141 2.543 0z" fill="#39322B"/><path fill-rule="evenodd" clip-rule="evenodd" d="M14.93 16.974c1.271 0 1.271-.377 1.271-.377v.697a.32.32 0 01-.318.32h-1.888a.317.317 0 01-.318-.32v-.684s-.025.364 1.253.364z" fill="#F1EEE9"/><path fill-rule="evenodd" clip-rule="evenodd" d="M19.4 32.96v3.837h-8.902V32.96s2.283 3.197 4.45 3.197c2.277 0 4.451-3.197 4.451-3.197z" fill="#BED6CE"/><path fill-rule="evenodd" clip-rule="evenodd" d="M10.498 27.845c-1.014.532-2.08.96-3.18 1.279-1.665.48-3.642.639-5.086 1.918C.325 32.71.325 36.797.325 36.797h10.173v-8.952zM19.4 27.845c1.014.532 2.079.96 3.178 1.279 1.666.48 3.644.639 5.087 1.918 1.907 1.669 1.907 5.755 1.907 5.755H19.4v-8.952z" fill="#009F90"/><path fill-rule="evenodd" clip-rule="evenodd" d="M10.498 27.845s-2.016.396-2.543 1.279c-.414.69.635 1.918.635 1.918v1.918s-1.271.678-1.271 1.279c0 .601.94 1.177 1.271 1.669a.77.77 0 010 .889h1.908v-8.952zM19.4 27.845s2.015.396 2.543 1.279c.413.69-.636 1.918-.636 1.918v1.918s1.271.678 1.271 1.279c0 .601-.953 1.177-1.252 1.669a.77.77 0 000 .889h-1.908l-.019-8.952z" fill="#006C71"/></svg>