<svg width="30" height="37" fill="none" xmlns="http://www.w3.org/2000/svg"><path fill-rule="evenodd" clip-rule="evenodd" d="M22.254 15.696c-.814 0-.51 3.612-2.512 4.891-.776.493-1.94 1.337-1.94 2.142 0 5.167 1.273 5.116 1.273 5.116v8.952H0s0-4.086 1.907-5.755c1.425-1.279 3.402-1.407 5.087-1.918a17 17 0 003.18-1.28s1.144-.492 1.144-5.115c0-1.247-1.73-1.355-2.277-2.698-.546-1.343-1.43-3.837-2.683-4.348-1.64-.64-1.271-1.63-1.271-2.558 0-1.573 1.907-.64 1.907-.64V4.814h15.26v7.673s1.907-1.382 1.907 0c0 1.215.267 3.21-1.907 3.21z" fill="#fff"/><path fill-rule="evenodd" clip-rule="evenodd" d="M19.074 36.797H15.26s-.432-14.381 0-14.707c1.813-1.381 4.318-5.595 4.451-8.952.178-4.534-2.543-8.313-2.543-8.313h5.086v7.673s1.908-1.38 1.908 0c0 1.203.267 3.198-1.908 3.198-.813 0-.508 3.612-2.511 4.891-.776.493-1.94 1.337-1.94 2.142 0 5.167 1.272 5.116 1.272 5.116 1.015.532 2.08.96 3.18 1.279 1.665.48 3.643.639 5.086 1.918 1.907 1.669 1.907 5.755 1.907 5.755H19.075z" fill="#F1EEE9"/><path fill-rule="evenodd" clip-rule="evenodd" d="M22.253 11.859c0 .352-.14.684.21.684a3.178 3.178 0 001.062-.684 7.487 7.487 0 00.636-3.197c-.064-.537.636-.25.636-.64 0-1.867-.464-.172-.636-.639-.248-.671-.42-1.918-.636-2.558-1.074-3.107-2.543-2.423-3.179-3.197C20.08 1.283 20.111.35 19.074.35c-.311 0 0 1.28 0 1.28s-2.543-2.207-8.901-.64C6.778 1.82 5.64 4.122 5.265 5.72c-.128.538-.814-.306-.814 1.663 0 .224.636-.64.636-.64a17.895 17.895 0 000 3.198c.076.677.292 1.33.635 1.918.147.294.395.358.7.473.146.051.477.275.572.166.095-.108-.05-.505 0-.639 0 0 .267.096 1.399-.41.998-.447 1.538-.869 2.416-.869.413 0 2.054-.697 1.322-.172-.56.402-1.66.773-1.322.812.928.102 2.918-.397 4.362-1.068.902-.416 1.208-.902 2.104-1.35.509-.255.998.116 1.463-.166 1.188-.722 2.06-1.918 2.244-1.918.464 0 .133.966.324 2.065.216 1.054.533 2.084.947 3.076z" fill="#39322B"/><path fill-rule="evenodd" clip-rule="evenodd" d="M10.167 11.68a6.762 6.762 0 01-1.908-.518 1.906 1.906 0 011.908-.518c1.189.275 2.785.64 2.543 1.036-.204.3-1.64.14-2.543 0zM19.08 11.68a6.762 6.762 0 001.908-.518 1.905 1.905 0 00-1.907-.518c-1.19.275-2.785.64-2.543 1.036.203.3 1.64.14 2.543 0z" fill="#39322B"/><path fill-rule="evenodd" clip-rule="evenodd" d="M14.605 18.253c1.271 0 1.271-.37 1.271-.37v.69a.32.32 0 01-.318.32h-1.907a.317.317 0 01-.318-.32v-.69s-.006.37 1.272.37z" fill="#F1EEE9"/><path fill-rule="evenodd" clip-rule="evenodd" d="M10.809 26.566l3.179 2.558h1.271l3.18-2.558 1.907 1.918-1.907 3.837-2.544-2.558h-2.543l-2.543 2.558L8.9 28.484l1.908-1.918z" fill="#009F90"/><path fill-rule="evenodd" clip-rule="evenodd" d="M13.352 29.763l.636-.64h1.272l.635.64v.64l-.635.639 1.271 5.755h-3.815l1.272-5.755-.636-.64v-.639z" fill="#006C71"/></svg>