<svg width="28" height="37" fill="none" xmlns="http://www.w3.org/2000/svg"><path d="M7.948 31.681c1.931 0 3.497-3.149 3.497-7.034 0-3.884-1.566-7.033-3.497-7.033-1.932 0-3.497 3.149-3.497 7.034 0 3.884 1.565 7.033 3.497 7.033zM18.757 31.681c1.93 0 3.497-3.149 3.497-7.034 0-3.884-1.566-7.033-3.497-7.033-1.932 0-3.497 3.149-3.497 7.034 0 3.884 1.565 7.033 3.497 7.033z" fill="#39322B"/><path fill-rule="evenodd" clip-rule="evenodd" d="M19.71 9.301L6.994 11.86s-.636 1.995 0 6.394c.14.927 1.183 1.874 1.907 2.558.725.684 1.272.441 1.272 4.476S6.55 28.72 3.18 30.402C0 31.988 0 36.797 0 36.797h27.34s-.407-5.205-2.543-6.395c-2.804-1.566-8.266-.48-8.266-5.115 0-2.468-.05-2.98 1.272-4.476.439-.499 1.774-1.279 1.907-1.918a25.881 25.881 0 000-9.592z" fill="#fff"/><path fill-rule="evenodd" clip-rule="evenodd" d="M13.988 36.797H27.34s-.407-5.205-2.543-6.395c-2.804-1.566-8.266-.48-8.266-5.115 0-2.468-.05-2.98 1.272-4.476.439-.499 1.774-1.279 1.907-1.918.445-2.52 1.367-6.574.852-9.067-.14-.678-1.271.134-1.488-.525 0 0 .763 3.332-.89 7.82-.858 2.328-4.056 4.157-4.056 6.273 0 7.526-.14 13.403-.14 13.403z" fill="#F1EEE9"/><path fill-rule="evenodd" clip-rule="evenodd" d="M21.618 29.763s3.815-4.029 3.815-8.313c0-4.674-2.124-5.41-1.908-8.312.579-7.833-2.467-12.15-10.173-12.15-8.265 0-11.088 5.538-10.173 12.79.273 2.154-1.907 3.139-1.907 6.394 0 5.23 3.815 9.59 3.815 9.59s1.271-.74 1.411-1.853c.14-1.113-.954-2.648-.598-4.157.458-1.918 1.533-3.51 1.73-5.499.299-2.98-1.062-5.755-.636-5.755 1.621 0 5.83 1.203 8.266 0 2.435-1.202 3.7-3.561 4.501-2.346.522.818-1.023 4.802-.012 9.77.337 1.695 1.08 3.197 1.182 5.148.07 1.4-.585 1.918-.585 2.787 0 2.015 1.272 1.906 1.272 1.906z" fill="#009F90"/><path fill-rule="evenodd" clip-rule="evenodd" d="M15.895 19.09c-.832-.325-1.665-.837-2.543-.837-.877 0-1.704.512-2.543.838 0 0 1.577 1.72 2.543 1.72.967 0 2.543-1.72 2.543-1.72z" fill="#39322B"/><path fill-rule="evenodd" clip-rule="evenodd" d="M9.537 30.402l-3.179 6.395h15.26l-3.815-6.395H9.537z" fill="#006C71"/><path fill-rule="evenodd" clip-rule="evenodd" d="M8.679 28.382l-1.272.569s3.211 2.73 6.225 2.73 6.148-2.634 6.148-2.634l-1.424-.537s-2.67 1.278-4.75 1.278c-2.079 0-4.927-1.406-4.927-1.406z" fill="#009F90"/></svg>