<?xml version="1.0" encoding="utf-8"?><svg viewBox="0 0 945 720" xmlns="http://www.w3.org/2000/svg" xmlns:xlink="http://www.w3.org/1999/xlink"><style>:root>svg{display:none}:root>svg:target{display:block}</style><svg fill="none" viewBox="0 0 512 512" id="blog-bg" xmlns="http://www.w3.org/2000/svg"><path d="M172.2 226.824c-14.6-2.9-28.2 8.9-28.2 23.8v50.4c0 10.2 7.1 18.4 16.7 22 18.2 6.8 31.3 24.4 31.3 45 0 26.5-21.5 48-48 48s-48-21.5-48-48v-248c0-13.3-10.7-24-24-24H24c-13.3 0-24 10.7-24 24v248c0 89.5 82.1 160.2 175 140.7 54.4-11.4 98.3-55.4 109.7-109.7 17.4-82.9-37-157.2-112.5-172.2zM209 .024c-9.2-.5-17 6.8-17 16v31.6c0 8.5 6.6 15.5 15 15.9 129.4 7 233.4 112 240.9 241.5.5 8.4 7.5 15 15.9 15h32.1c9.2 0 16.5-7.8 16-17-8.5-163.2-139.7-294.4-302.9-303zm.3 96c-9.3-.7-17.3 6.7-17.3 16.1v32.1c0 8.4 6.5 15.3 14.8 15.9 76.8 6.3 138 68.2 144.9 145.2.8 8.3 7.6 14.7 15.9 14.7h32.2c9.3 0 16.8-8 16.1-17.3-8.4-110.1-96.5-198.2-206.6-206.7z" fill="url(#apaint0_linear)"/><defs><linearGradient id="apaint0_linear" x1="255.962" y1="0" x2="255.962" y2="511.982" gradientUnits="userSpaceOnUse"><stop/><stop offset="1" stop-color="#fff" stop-opacity="0"/></linearGradient></defs></svg><svg fill="none" viewBox="0 0 308 308" id="dot-bg" xmlns="http://www.w3.org/2000/svg"><circle cx="4" cy="4" r="3.5" stroke="#D5DCE9" stroke-dasharray="2 2"/><circle cx="24" cy="4" r="3.5" stroke="#D5DCE9" stroke-dasharray="2 2"/><circle cx="44" cy="4" r="3.5" stroke="#D5DCE9" stroke-dasharray="2 2"/><circle cx="64" cy="4" r="3.5" stroke="#D5DCE9" stroke-dasharray="2 2"/><circle cx="84" cy="4" r="3.5" stroke="#D5DCE9" stroke-dasharray="2 2"/><circle cx="104" cy="4" r="3.5" stroke="#D5DCE9" stroke-dasharray="2 2"/><circle cx="124" cy="4" r="3.5" stroke="#D5DCE9" stroke-dasharray="2 2"/><circle cx="144" cy="4" r="3.5" stroke="#D5DCE9" stroke-dasharray="2 2"/><circle cx="164" cy="4" r="3.5" stroke="#D5DCE9" stroke-dasharray="2 2"/><circle cx="184" cy="4" r="3.5" stroke="#D5DCE9" stroke-dasharray="2 2"/><circle cx="204" cy="4" r="3.5" stroke="#D5DCE9" stroke-dasharray="2 2"/><circle cx="224" cy="4" r="3.5" stroke="#D5DCE9" stroke-dasharray="2 2"/><circle cx="244" cy="4" r="3.5" stroke="#D5DCE9" stroke-dasharray="2 2"/><circle cx="264" cy="4" r="3.5" stroke="#D5DCE9" stroke-dasharray="2 2"/><circle cx="284" cy="4" r="3.5" stroke="#D5DCE9" stroke-dasharray="2 2"/><circle cx="304" cy="4" r="3.5" stroke="#D5DCE9" stroke-dasharray="2 2"/><circle cx="4" cy="24" r="3.5" stroke="#D5DCE9" stroke-dasharray="2 2"/><circle cx="24" cy="24" r="3.5" stroke="#D5DCE9" stroke-dasharray="2 2"/><circle cx="44" cy="24" r="3.5" stroke="#D5DCE9" stroke-dasharray="2 2"/><circle cx="64" cy="24" r="3.5" stroke="#D5DCE9" stroke-dasharray="2 2"/><circle cx="84" cy="24" r="3.5" stroke="#D5DCE9" stroke-dasharray="2 2"/><circle cx="104" cy="24" r="3.5" stroke="#D5DCE9" stroke-dasharray="2 2"/><circle cx="124" cy="24" r="3.5" stroke="#D5DCE9" stroke-dasharray="2 2"/><circle cx="144" cy="24" r="3.5" stroke="#D5DCE9" stroke-dasharray="2 2"/><circle cx="164" cy="24" r="3.5" stroke="#D5DCE9" stroke-dasharray="2 2"/><circle cx="184" cy="24" r="3.5" stroke="#D5DCE9" stroke-dasharray="2 2"/><circle cx="204" cy="24" r="3.5" stroke="#D5DCE9" stroke-dasharray="2 2"/><circle cx="224" cy="24" r="3.5" stroke="#D5DCE9" stroke-dasharray="2 2"/><circle cx="244" cy="24" r="3.5" stroke="#D5DCE9" stroke-dasharray="2 2"/><circle cx="264" cy="24" r="3.5" stroke="#D5DCE9" stroke-dasharray="2 2"/><circle cx="284" cy="24" r="3.5" stroke="#D5DCE9" stroke-dasharray="2 2"/><circle cx="304" cy="24" r="3.5" stroke="#D5DCE9" stroke-dasharray="2 2"/><circle cx="4" cy="44" r="3.5" stroke="#D5DCE9" stroke-dasharray="2 2"/><circle cx="24" cy="44" r="3.5" stroke="#D5DCE9" stroke-dasharray="2 2"/><circle cx="44" cy="44" r="3.5" stroke="#D5DCE9" stroke-dasharray="2 2"/><circle cx="64" cy="44" r="3.5" stroke="#D5DCE9" stroke-dasharray="2 2"/><circle cx="84" cy="44" r="3.5" stroke="#D5DCE9" stroke-dasharray="2 2"/><circle cx="104" cy="44" r="3.5" stroke="#D5DCE9" stroke-dasharray="2 2"/><circle cx="124" cy="44" r="3.5" stroke="#D5DCE9" stroke-dasharray="2 2"/><circle cx="144" cy="44" r="3.5" stroke="#D5DCE9" stroke-dasharray="2 2"/><circle cx="164" cy="44" r="3.5" stroke="#D5DCE9" stroke-dasharray="2 2"/><circle cx="184" cy="44" r="3.5" stroke="#D5DCE9" stroke-dasharray="2 2"/><circle cx="204" cy="44" r="3.5" stroke="#D5DCE9" stroke-dasharray="2 2"/><circle cx="224" cy="44" r="3.5" stroke="#D5DCE9" stroke-dasharray="2 2"/><circle cx="244" cy="44" r="3.5" stroke="#D5DCE9" stroke-dasharray="2 2"/><circle cx="264" cy="44" r="3.5" stroke="#D5DCE9" stroke-dasharray="2 2"/><circle cx="284" cy="44" r="3.5" stroke="#D5DCE9" stroke-dasharray="2 2"/><circle cx="304" cy="44" r="3.5" stroke="#D5DCE9" stroke-dasharray="2 2"/><circle cx="4" cy="64" r="3.5" stroke="#D5DCE9" stroke-dasharray="2 2"/><circle cx="24" cy="64" r="3.5" stroke="#D5DCE9" stroke-dasharray="2 2"/><circle cx="44" cy="64" r="3.5" stroke="#D5DCE9" stroke-dasharray="2 2"/><circle cx="64" cy="64" r="3.5" stroke="#D5DCE9" stroke-dasharray="2 2"/><circle cx="84" cy="64" r="3.5" stroke="#D5DCE9" stroke-dasharray="2 2"/><circle cx="104" cy="64" r="3.5" stroke="#D5DCE9" stroke-dasharray="2 2"/><circle cx="124" cy="64" r="3.5" stroke="#D5DCE9" stroke-dasharray="2 2"/><circle cx="144" cy="64" r="3.5" stroke="#D5DCE9" stroke-dasharray="2 2"/><circle cx="164" cy="64" r="3.5" stroke="#D5DCE9" stroke-dasharray="2 2"/><circle cx="184" cy="64" r="3.5" stroke="#D5DCE9" stroke-dasharray="2 2"/><circle cx="204" cy="64" r="3.5" stroke="#D5DCE9" stroke-dasharray="2 2"/><circle cx="224" cy="64" r="3.5" stroke="#D5DCE9" stroke-dasharray="2 2"/><circle cx="244" cy="64" r="3.5" stroke="#D5DCE9" stroke-dasharray="2 2"/><circle cx="264" cy="64" r="3.5" stroke="#D5DCE9" stroke-dasharray="2 2"/><circle cx="284" cy="64" r="3.5" stroke="#D5DCE9" stroke-dasharray="2 2"/><circle cx="304" cy="64" r="3.5" stroke="#D5DCE9" stroke-dasharray="2 2"/><circle cx="4" cy="84" r="3.5" stroke="#D5DCE9" stroke-dasharray="2 2"/><circle cx="24" cy="84" r="3.5" stroke="#D5DCE9" stroke-dasharray="2 2"/><circle cx="44" cy="84" r="3.5" stroke="#D5DCE9" stroke-dasharray="2 2"/><circle cx="64" cy="84" r="3.5" stroke="#D5DCE9" stroke-dasharray="2 2"/><circle cx="84" cy="84" r="3.5" stroke="#D5DCE9" stroke-dasharray="2 2"/><circle cx="104" cy="84" r="3.5" stroke="#D5DCE9" stroke-dasharray="2 2"/><circle cx="124" cy="84" r="3.5" stroke="#D5DCE9" stroke-dasharray="2 2"/><circle cx="144" cy="84" r="3.5" stroke="#D5DCE9" stroke-dasharray="2 2"/><circle cx="164" cy="84" r="3.5" stroke="#D5DCE9" stroke-dasharray="2 2"/><circle cx="184" cy="84" r="3.5" stroke="#D5DCE9" stroke-dasharray="2 2"/><circle cx="204" cy="84" r="3.5" stroke="#D5DCE9" stroke-dasharray="2 2"/><circle cx="224" cy="84" r="3.5" stroke="#D5DCE9" stroke-dasharray="2 2"/><circle cx="244" cy="84" r="3.5" stroke="#D5DCE9" stroke-dasharray="2 2"/><circle cx="264" cy="84" r="3.5" stroke="#D5DCE9" stroke-dasharray="2 2"/><circle cx="284" cy="84" r="3.5" stroke="#D5DCE9" stroke-dasharray="2 2"/><circle cx="304" cy="84" r="3.5" stroke="#D5DCE9" stroke-dasharray="2 2"/><circle cx="4" cy="104" r="3.5" stroke="#D5DCE9" stroke-dasharray="2 2"/><circle cx="24" cy="104" r="3.5" stroke="#D5DCE9" stroke-dasharray="2 2"/><circle cx="44" cy="104" r="3.5" stroke="#D5DCE9" stroke-dasharray="2 2"/><circle cx="64" cy="104" r="3.5" stroke="#D5DCE9" stroke-dasharray="2 2"/><circle cx="84" cy="104" r="3.5" stroke="#D5DCE9" stroke-dasharray="2 2"/><circle cx="104" cy="104" r="3.5" stroke="#D5DCE9" stroke-dasharray="2 2"/><circle cx="124" cy="104" r="3.5" stroke="#D5DCE9" stroke-dasharray="2 2"/><circle cx="144" cy="104" r="3.5" stroke="#D5DCE9" stroke-dasharray="2 2"/><circle cx="164" cy="104" r="3.5" stroke="#D5DCE9" stroke-dasharray="2 2"/><circle cx="184" cy="104" r="3.5" stroke="#D5DCE9" stroke-dasharray="2 2"/><circle cx="204" cy="104" r="3.5" stroke="#D5DCE9" stroke-dasharray="2 2"/><circle cx="224" cy="104" r="3.5" stroke="#D5DCE9" stroke-dasharray="2 2"/><circle cx="244" cy="104" r="3.5" stroke="#D5DCE9" stroke-dasharray="2 2"/><circle cx="264" cy="104" r="3.5" stroke="#D5DCE9" stroke-dasharray="2 2"/><circle cx="284" cy="104" r="3.5" stroke="#D5DCE9" stroke-dasharray="2 2"/><circle cx="304" cy="104" r="3.5" stroke="#D5DCE9" stroke-dasharray="2 2"/><circle cx="4" cy="124" r="3.5" stroke="#D5DCE9" stroke-dasharray="2 2"/><circle cx="24" cy="124" r="3.5" stroke="#D5DCE9" stroke-dasharray="2 2"/><circle cx="44" cy="124" r="3.5" stroke="#D5DCE9" stroke-dasharray="2 2"/><circle cx="64" cy="124" r="3.5" stroke="#D5DCE9" stroke-dasharray="2 2"/><circle cx="84" cy="124" r="3.5" stroke="#D5DCE9" stroke-dasharray="2 2"/><circle cx="104" cy="124" r="3.5" stroke="#D5DCE9" stroke-dasharray="2 2"/><circle cx="124" cy="124" r="3.5" stroke="#D5DCE9" stroke-dasharray="2 2"/><circle cx="144" cy="124" r="3.5" stroke="#D5DCE9" stroke-dasharray="2 2"/><circle cx="164" cy="124" r="3.5" stroke="#D5DCE9" stroke-dasharray="2 2"/><circle cx="184" cy="124" r="3.5" stroke="#D5DCE9" stroke-dasharray="2 2"/><circle cx="204" cy="124" r="3.5" stroke="#D5DCE9" stroke-dasharray="2 2"/><circle cx="224" cy="124" r="3.5" stroke="#D5DCE9" stroke-dasharray="2 2"/><circle cx="244" cy="124" r="3.5" stroke="#D5DCE9" stroke-dasharray="2 2"/><circle cx="264" cy="124" r="3.5" stroke="#D5DCE9" stroke-dasharray="2 2"/><circle cx="284" cy="124" r="3.5" stroke="#D5DCE9" stroke-dasharray="2 2"/><circle cx="304" cy="124" r="3.5" stroke="#D5DCE9" stroke-dasharray="2 2"/><circle cx="4" cy="144" r="3.5" stroke="#D5DCE9" stroke-dasharray="2 2"/><circle cx="24" cy="144" r="3.5" stroke="#D5DCE9" stroke-dasharray="2 2"/><circle cx="44" cy="144" r="3.5" stroke="#D5DCE9" stroke-dasharray="2 2"/><circle cx="64" cy="144" r="3.5" stroke="#D5DCE9" stroke-dasharray="2 2"/><circle cx="84" cy="144" r="3.5" stroke="#D5DCE9" stroke-dasharray="2 2"/><circle cx="104" cy="144" r="3.5" stroke="#D5DCE9" stroke-dasharray="2 2"/><circle cx="124" cy="144" r="3.5" stroke="#D5DCE9" stroke-dasharray="2 2"/><circle cx="144" cy="144" r="3.5" stroke="#D5DCE9" stroke-dasharray="2 2"/><circle cx="164" cy="144" r="3.5" stroke="#D5DCE9" stroke-dasharray="2 2"/><circle cx="184" cy="144" r="3.5" stroke="#D5DCE9" stroke-dasharray="2 2"/><circle cx="204" cy="144" r="3.5" stroke="#D5DCE9" stroke-dasharray="2 2"/><circle cx="224" cy="144" r="3.5" stroke="#D5DCE9" stroke-dasharray="2 2"/><circle cx="244" cy="144" r="3.5" stroke="#D5DCE9" stroke-dasharray="2 2"/><circle cx="264" cy="144" r="3.5" stroke="#D5DCE9" stroke-dasharray="2 2"/><circle cx="284" cy="144" r="3.5" stroke="#D5DCE9" stroke-dasharray="2 2"/><circle cx="304" cy="144" r="3.5" stroke="#D5DCE9" stroke-dasharray="2 2"/><circle cx="4" cy="164" r="3.5" stroke="#D5DCE9" stroke-dasharray="2 2"/><circle cx="24" cy="164" r="3.5" stroke="#D5DCE9" stroke-dasharray="2 2"/><circle cx="44" cy="164" r="3.5" stroke="#D5DCE9" stroke-dasharray="2 2"/><circle cx="64" cy="164" r="3.5" stroke="#D5DCE9" stroke-dasharray="2 2"/><circle cx="84" cy="164" r="3.5" stroke="#D5DCE9" stroke-dasharray="2 2"/><circle cx="104" cy="164" r="3.5" stroke="#D5DCE9" stroke-dasharray="2 2"/><circle cx="124" cy="164" r="3.5" stroke="#D5DCE9" stroke-dasharray="2 2"/><circle cx="144" cy="164" r="3.5" stroke="#D5DCE9" stroke-dasharray="2 2"/><circle cx="164" cy="164" r="3.5" stroke="#D5DCE9" stroke-dasharray="2 2"/><circle cx="184" cy="164" r="3.5" stroke="#D5DCE9" stroke-dasharray="2 2"/><circle cx="204" cy="164" r="3.5" stroke="#D5DCE9" stroke-dasharray="2 2"/><circle cx="224" cy="164" r="3.5" stroke="#D5DCE9" stroke-dasharray="2 2"/><circle cx="244" cy="164" r="3.5" stroke="#D5DCE9" stroke-dasharray="2 2"/><circle cx="264" cy="164" r="3.5" stroke="#D5DCE9" stroke-dasharray="2 2"/><circle cx="284" cy="164" r="3.5" stroke="#D5DCE9" stroke-dasharray="2 2"/><circle cx="304" cy="164" r="3.5" stroke="#D5DCE9" stroke-dasharray="2 2"/><circle cx="4" cy="184" r="3.5" stroke="#D5DCE9" stroke-dasharray="2 2"/><circle cx="24" cy="184" r="3.5" stroke="#D5DCE9" stroke-dasharray="2 2"/><circle cx="44" cy="184" r="3.5" stroke="#D5DCE9" stroke-dasharray="2 2"/><circle cx="64" cy="184" r="3.5" stroke="#D5DCE9" stroke-dasharray="2 2"/><circle cx="84" cy="184" r="3.5" stroke="#D5DCE9" stroke-dasharray="2 2"/><circle cx="104" cy="184" r="3.5" stroke="#D5DCE9" stroke-dasharray="2 2"/><circle cx="124" cy="184" r="3.5" stroke="#D5DCE9" stroke-dasharray="2 2"/><circle cx="144" cy="184" r="3.5" stroke="#D5DCE9" stroke-dasharray="2 2"/><circle cx="164" cy="184" r="3.5" stroke="#D5DCE9" stroke-dasharray="2 2"/><circle cx="184" cy="184" r="3.5" stroke="#D5DCE9" stroke-dasharray="2 2"/><circle cx="204" cy="184" r="3.5" stroke="#D5DCE9" stroke-dasharray="2 2"/><circle cx="224" cy="184" r="3.5" stroke="#D5DCE9" stroke-dasharray="2 2"/><circle cx="244" cy="184" r="3.5" stroke="#D5DCE9" stroke-dasharray="2 2"/><circle cx="264" cy="184" r="3.5" stroke="#D5DCE9" stroke-dasharray="2 2"/><circle cx="284" cy="184" r="3.5" stroke="#D5DCE9" stroke-dasharray="2 2"/><circle cx="304" cy="184" r="3.5" stroke="#D5DCE9" stroke-dasharray="2 2"/><circle cx="4" cy="204" r="3.5" stroke="#D5DCE9" stroke-dasharray="2 2"/><circle cx="24" cy="204" r="3.5" stroke="#D5DCE9" stroke-dasharray="2 2"/><circle cx="44" cy="204" r="3.5" stroke="#D5DCE9" stroke-dasharray="2 2"/><circle cx="64" cy="204" r="3.5" stroke="#D5DCE9" stroke-dasharray="2 2"/><circle cx="84" cy="204" r="3.5" stroke="#D5DCE9" stroke-dasharray="2 2"/><circle cx="104" cy="204" r="3.5" stroke="#D5DCE9" stroke-dasharray="2 2"/><circle cx="124" cy="204" r="3.5" stroke="#D5DCE9" stroke-dasharray="2 2"/><circle cx="144" cy="204" r="3.5" stroke="#D5DCE9" stroke-dasharray="2 2"/><circle cx="164" cy="204" r="3.5" stroke="#D5DCE9" stroke-dasharray="2 2"/><circle cx="184" cy="204" r="3.5" stroke="#D5DCE9" stroke-dasharray="2 2"/><circle cx="204" cy="204" r="3.5" stroke="#D5DCE9" stroke-dasharray="2 2"/><circle cx="224" cy="204" r="3.5" stroke="#D5DCE9" stroke-dasharray="2 2"/><circle cx="244" cy="204" r="3.5" stroke="#D5DCE9" stroke-dasharray="2 2"/><circle cx="264" cy="204" r="3.5" stroke="#D5DCE9" stroke-dasharray="2 2"/><circle cx="284" cy="204" r="3.5" stroke="#D5DCE9" stroke-dasharray="2 2"/><circle cx="304" cy="204" r="3.5" stroke="#D5DCE9" stroke-dasharray="2 2"/><circle cx="4" cy="224" r="3.5" stroke="#D5DCE9" stroke-dasharray="2 2"/><circle cx="24" cy="224" r="3.5" stroke="#D5DCE9" stroke-dasharray="2 2"/><circle cx="44" cy="224" r="3.5" stroke="#D5DCE9" stroke-dasharray="2 2"/><circle cx="64" cy="224" r="3.5" stroke="#D5DCE9" stroke-dasharray="2 2"/><circle cx="84" cy="224" r="3.5" stroke="#D5DCE9" stroke-dasharray="2 2"/><circle cx="104" cy="224" r="3.5" stroke="#D5DCE9" stroke-dasharray="2 2"/><circle cx="124" cy="224" r="3.5" stroke="#D5DCE9" stroke-dasharray="2 2"/><circle cx="144" cy="224" r="3.5" stroke="#D5DCE9" stroke-dasharray="2 2"/><circle cx="164" cy="224" r="3.5" stroke="#D5DCE9" stroke-dasharray="2 2"/><circle cx="184" cy="224" r="3.5" stroke="#D5DCE9" stroke-dasharray="2 2"/><circle cx="204" cy="224" r="3.5" stroke="#D5DCE9" stroke-dasharray="2 2"/><circle cx="224" cy="224" r="3.5" stroke="#D5DCE9" stroke-dasharray="2 2"/><circle cx="244" cy="224" r="3.5" stroke="#D5DCE9" stroke-dasharray="2 2"/><circle cx="264" cy="224" r="3.5" stroke="#D5DCE9" stroke-dasharray="2 2"/><circle cx="284" cy="224" r="3.5" stroke="#D5DCE9" stroke-dasharray="2 2"/><circle cx="304" cy="224" r="3.5" stroke="#D5DCE9" stroke-dasharray="2 2"/><circle cx="4" cy="244" r="3.5" stroke="#D5DCE9" stroke-dasharray="2 2"/><circle cx="24" cy="244" r="3.5" stroke="#D5DCE9" stroke-dasharray="2 2"/><circle cx="44" cy="244" r="3.5" stroke="#D5DCE9" stroke-dasharray="2 2"/><circle cx="64" cy="244" r="3.5" stroke="#D5DCE9" stroke-dasharray="2 2"/><circle cx="84" cy="244" r="3.5" stroke="#D5DCE9" stroke-dasharray="2 2"/><circle cx="104" cy="244" r="3.5" stroke="#D5DCE9" stroke-dasharray="2 2"/><circle cx="124" cy="244" r="3.5" stroke="#D5DCE9" stroke-dasharray="2 2"/><circle cx="144" cy="244" r="3.5" stroke="#D5DCE9" stroke-dasharray="2 2"/><circle cx="164" cy="244" r="3.5" stroke="#D5DCE9" stroke-dasharray="2 2"/><circle cx="184" cy="244" r="3.5" stroke="#D5DCE9" stroke-dasharray="2 2"/><circle cx="204" cy="244" r="3.5" stroke="#D5DCE9" stroke-dasharray="2 2"/><circle cx="224" cy="244" r="3.5" stroke="#D5DCE9" stroke-dasharray="2 2"/><circle cx="244" cy="244" r="3.5" stroke="#D5DCE9" stroke-dasharray="2 2"/><circle cx="264" cy="244" r="3.5" stroke="#D5DCE9" stroke-dasharray="2 2"/><circle cx="284" cy="244" r="3.5" stroke="#D5DCE9" stroke-dasharray="2 2"/><circle cx="304" cy="244" r="3.5" stroke="#D5DCE9" stroke-dasharray="2 2"/><circle cx="4" cy="264" r="3.5" stroke="#D5DCE9" stroke-dasharray="2 2"/><circle cx="24" cy="264" r="3.5" stroke="#D5DCE9" stroke-dasharray="2 2"/><circle cx="44" cy="264" r="3.5" stroke="#D5DCE9" stroke-dasharray="2 2"/><circle cx="64" cy="264" r="3.5" stroke="#D5DCE9" stroke-dasharray="2 2"/><circle cx="84" cy="264" r="3.5" stroke="#D5DCE9" stroke-dasharray="2 2"/><circle cx="104" cy="264" r="3.5" stroke="#D5DCE9" stroke-dasharray="2 2"/><circle cx="124" cy="264" r="3.5" stroke="#D5DCE9" stroke-dasharray="2 2"/><circle cx="144" cy="264" r="3.5" stroke="#D5DCE9" stroke-dasharray="2 2"/><circle cx="164" cy="264" r="3.5" stroke="#D5DCE9" stroke-dasharray="2 2"/><circle cx="184" cy="264" r="3.5" stroke="#D5DCE9" stroke-dasharray="2 2"/><circle cx="204" cy="264" r="3.5" stroke="#D5DCE9" stroke-dasharray="2 2"/><circle cx="224" cy="264" r="3.5" stroke="#D5DCE9" stroke-dasharray="2 2"/><circle cx="244" cy="264" r="3.5" stroke="#D5DCE9" stroke-dasharray="2 2"/><circle cx="264" cy="264" r="3.5" stroke="#D5DCE9" stroke-dasharray="2 2"/><circle cx="284" cy="264" r="3.5" stroke="#D5DCE9" stroke-dasharray="2 2"/><circle cx="304" cy="264" r="3.5" stroke="#D5DCE9" stroke-dasharray="2 2"/><circle cx="4" cy="284" r="3.5" stroke="#D5DCE9" stroke-dasharray="2 2"/><circle cx="24" cy="284" r="3.5" stroke="#D5DCE9" stroke-dasharray="2 2"/><circle cx="44" cy="284" r="3.5" stroke="#D5DCE9" stroke-dasharray="2 2"/><circle cx="64" cy="284" r="3.5" stroke="#D5DCE9" stroke-dasharray="2 2"/><circle cx="84" cy="284" r="3.5" stroke="#D5DCE9" stroke-dasharray="2 2"/><circle cx="104" cy="284" r="3.5" stroke="#D5DCE9" stroke-dasharray="2 2"/><circle cx="124" cy="284" r="3.5" stroke="#D5DCE9" stroke-dasharray="2 2"/><circle cx="144" cy="284" r="3.5" stroke="#D5DCE9" stroke-dasharray="2 2"/><circle cx="164" cy="284" r="3.5" stroke="#D5DCE9" stroke-dasharray="2 2"/><circle cx="184" cy="284" r="3.5" stroke="#D5DCE9" stroke-dasharray="2 2"/><circle cx="204" cy="284" r="3.5" stroke="#D5DCE9" stroke-dasharray="2 2"/><circle cx="224" cy="284" r="3.5" stroke="#D5DCE9" stroke-dasharray="2 2"/><circle cx="244" cy="284" r="3.5" stroke="#D5DCE9" stroke-dasharray="2 2"/><circle cx="264" cy="284" r="3.5" stroke="#D5DCE9" stroke-dasharray="2 2"/><circle cx="284" cy="284" r="3.5" stroke="#D5DCE9" stroke-dasharray="2 2"/><circle cx="304" cy="284" r="3.5" stroke="#D5DCE9" stroke-dasharray="2 2"/><circle cx="4" cy="304" r="3.5" stroke="#D5DCE9" stroke-dasharray="2 2"/><circle cx="24" cy="304" r="3.5" stroke="#D5DCE9" stroke-dasharray="2 2"/><circle cx="44" cy="304" r="3.5" stroke="#D5DCE9" stroke-dasharray="2 2"/><circle cx="64" cy="304" r="3.5" stroke="#D5DCE9" stroke-dasharray="2 2"/><circle cx="84" cy="304" r="3.5" stroke="#D5DCE9" stroke-dasharray="2 2"/><circle cx="104" cy="304" r="3.5" stroke="#D5DCE9" stroke-dasharray="2 2"/><circle cx="124" cy="304" r="3.5" stroke="#D5DCE9" stroke-dasharray="2 2"/><circle cx="144" cy="304" r="3.5" stroke="#D5DCE9" stroke-dasharray="2 2"/><circle cx="164" cy="304" r="3.5" stroke="#D5DCE9" stroke-dasharray="2 2"/><circle cx="184" cy="304" r="3.5" stroke="#D5DCE9" stroke-dasharray="2 2"/><circle cx="204" cy="304" r="3.5" stroke="#D5DCE9" stroke-dasharray="2 2"/><circle cx="224" cy="304" r="3.5" stroke="#D5DCE9" stroke-dasharray="2 2"/><circle cx="244" cy="304" r="3.5" stroke="#D5DCE9" stroke-dasharray="2 2"/><circle cx="264" cy="304" r="3.5" stroke="#D5DCE9" stroke-dasharray="2 2"/><circle cx="284" cy="304" r="3.5" stroke="#D5DCE9" stroke-dasharray="2 2"/><circle cx="304" cy="304" r="3.5" stroke="#D5DCE9" stroke-dasharray="2 2"/></svg><svg aria-hidden="true" data-prefix="fas" data-icon="paperclip" class="csvg-inline--fa cfa-paperclip cfa-w-14" viewBox="0 0 448 512" id="icon-add" xmlns="http://www.w3.org/2000/svg"><path fill="#CB000E" d="M43.246 466.142c-58.43-60.289-57.341-157.511 1.386-217.581L254.392 34c44.316-45.332 116.351-45.336 160.671 0 43.89 44.894 43.943 117.329 0 162.276L232.214 383.128c-29.855 30.537-78.633 30.111-107.982-.998-28.275-29.97-27.368-77.473 1.452-106.953l143.743-146.835c6.182-6.314 16.312-6.422 22.626-.241l22.861 22.379c6.315 6.182 6.422 16.312.241 22.626L171.427 319.927c-4.932 5.045-5.236 13.428-.648 18.292 4.372 4.634 11.245 4.711 15.688.165l182.849-186.851c19.613-20.062 19.613-52.725-.011-72.798-19.189-19.627-49.957-19.637-69.154 0L90.39 293.295c-34.763 35.56-35.299 93.12-1.191 128.313 34.01 35.093 88.985 35.137 123.058.286l172.06-175.999c6.177-6.319 16.307-6.433 22.626-.256l22.877 22.364c6.319 6.177 6.434 16.307.256 22.626l-172.06 175.998c-59.576 60.938-155.943 60.216-214.77-.485z"/></svg><svg fill="none" viewBox="0 0 33 35" id="icon-ads" xmlns="http://www.w3.org/2000/svg"><g opacity=".5"><rect x="3.474" width="8.684" height="29.526" rx="4.342" fill="#E6E6E6"/><rect x="33" y="20.842" width="8.684" height="29.526" rx="4.342" transform="rotate(90 33 20.842)" fill="#E6E6E6"/><rect x="20.842" y="5.21" width="8.684" height="29.526" rx="4.342" fill="#fff"/><rect y="13.895" width="8.684" height="29.526" rx="4.342" transform="rotate(-90 0 13.895)" fill="#fff"/><circle cx="25.184" cy="30.395" r="4.342" fill="#E5E5E5"/></g></svg><svg fill="none" viewBox="0 0 21 18" id="icon-blog-arrow" xmlns="http://www.w3.org/2000/svg"><path d="M15 17l5-5-5-5" stroke="#fff" stroke-width="2" stroke-linecap="round" stroke-linejoin="round" stroke-dasharray="3 3"/><path d="M18 12h-7.556C5.228 12 1 7.523 1 2V1" stroke="#fff" stroke-width="2" stroke-linecap="round" stroke-linejoin="round" stroke-dasharray="3 3"/></svg><svg fill="none" viewBox="0 0 46 46" id="icon-close" xmlns="http://www.w3.org/2000/svg"><rect x="42.427" width="4" height="60" rx="2" transform="rotate(45 42.427 0)" fill="currentColor"/><rect y="2.829" width="2" height="60" rx="1" transform="rotate(-45 0 2.829)" fill="currentColor"/></svg><svg aria-hidden="true" data-prefix="fas" data-icon="at" class="gsvg-inline--fa gfa-at gfa-w-16" viewBox="0 0 512 512" id="icon-email" xmlns="http://www.w3.org/2000/svg"><path fill="#009F90" d="M256 8C118.941 8 8 118.919 8 256c0 137.059 110.919 248 248 248 48.154 0 95.342-14.14 135.408-40.223 12.005-7.815 14.625-24.288 5.552-35.372l-10.177-12.433c-7.671-9.371-21.179-11.667-31.373-5.129C325.92 429.757 291.314 440 256 440c-101.458 0-184-82.542-184-184S154.542 72 256 72c100.139 0 184 57.619 184 160 0 38.786-21.093 79.742-58.17 83.693-17.349-.454-16.91-12.857-13.476-30.024l23.433-121.11C394.653 149.75 383.308 136 368.225 136h-44.981a13.518 13.518 0 00-13.432 11.993l-.01.092c-14.697-17.901-40.448-21.775-59.971-21.775-74.58 0-137.831 62.234-137.831 151.46 0 65.303 36.785 105.87 96 105.87 26.984 0 57.369-15.637 74.991-38.333 9.522 34.104 40.613 34.103 70.71 34.103C462.609 379.41 504 307.798 504 232 504 95.653 394.023 8 256 8zm-21.68 304.43c-22.249 0-36.07-15.623-36.07-40.771 0-44.993 30.779-72.729 58.63-72.729 22.292 0 35.601 15.241 35.601 40.77 0 45.061-33.875 72.73-58.161 72.73z"/></svg><svg aria-hidden="true" data-prefix="fab" data-icon="facebook-f" class="hsvg-inline--fa hfa-facebook-f hfa-w-10" viewBox="0 0 320 512" id="icon-facebook" xmlns="http://www.w3.org/2000/svg"><path fill="currentColor" d="M279.14 288l14.22-92.66h-88.91v-60.13c0-25.35 12.42-50.06 52.24-50.06h40.42V6.26S260.43 0 225.36 0c-73.22 0-121.08 44.38-121.08 124.72v70.62H22.89V288h81.39v224h100.17V288z"/></svg><svg fill="none" viewBox="0 0 21 21" id="icon-map-dots" xmlns="http://www.w3.org/2000/svg"><path d="M1.5 21a1.5 1.5 0 100-3 1.5 1.5 0 000 3zM4.5 18a1.5 1.5 0 100-3 1.5 1.5 0 000 3zM7.5 15a1.5 1.5 0 100-3 1.5 1.5 0 000 3zM10.5 12a1.5 1.5 0 100-3 1.5 1.5 0 000 3zM13.5 9a1.5 1.5 0 100-3 1.5 1.5 0 000 3zM16.5 6a1.5 1.5 0 100-3 1.5 1.5 0 000 3zM19.5 3a1.5 1.5 0 100-3 1.5 1.5 0 000 3z" fill="#009F90"/></svg><svg fill="none" viewBox="0 0 40 45" id="icon-map-location" xmlns="http://www.w3.org/2000/svg"><g clip-path="url(#jclip0)" fill="#009F90"><path d="M16.552 7.8a7.968 7.968 0 00-4.391 1.317 7.834 7.834 0 00-2.911 3.507 7.731 7.731 0 00-.45 4.514 7.786 7.786 0 002.163 4.001 7.932 7.932 0 004.047 2.138 7.988 7.988 0 004.566-.444 7.885 7.885 0 003.547-2.878 7.751 7.751 0 001.332-4.341c0-2.072-.832-4.06-2.315-5.525A7.95 7.95 0 0016.552 7.8zm0 12.9a5.187 5.187 0 01-2.859-.857A5.1 5.1 0 0111.8 17.56a5.033 5.033 0 01-.293-2.938 5.069 5.069 0 011.408-2.605 5.164 5.164 0 012.634-1.392 5.2 5.2 0 012.972.29 5.133 5.133 0 012.31 1.873c.565.836.867 1.82.867 2.826a5.057 5.057 0 01-1.512 3.588 5.175 5.175 0 01-3.633 1.485v.013z"/><path d="M32.786 17.032a10.438 10.438 0 01-2.758-.45v.777c0 5.536-3.338 10.46-5.78 14.06l-.496.722c-2.373 3.518-5.517 7.459-7.214 9.409-1.628-1.95-4.841-5.89-7.214-9.41l-.469-.776c-2.441-3.6-5.793-8.523-5.793-14.06a13.206 13.206 0 011.762-6.538 13.395 13.395 0 014.783-4.839 13.602 13.602 0 0113.234-.35c.11-.937.351-1.855.718-2.727a16.366 16.366 0 00-15.698.878 16.1 16.1 0 00-5.563 5.849 15.879 15.879 0 00-1.995 7.782c0 6.368 3.614 11.7 6.262 15.587l.483.709a136.023 136.023 0 008.47 10.909l1.047 1.213 1.049-1.213a136.297 136.297 0 008.469-10.91l.483-.722c2.634-3.887 6.248-9.205 6.248-15.573a2.618 2.618 0 01-.028-.327z"/><path d="M33.103 13.636c3.81 0 6.897-3.052 6.897-6.818C40 3.053 36.912 0 33.103 0c-3.808 0-6.896 3.053-6.896 6.818 0 3.766 3.088 6.818 6.896 6.818z"/></g><defs><clipPath id="jclip0"><path transform="matrix(-1 0 0 1 40 0)" fill="#fff" d="M0 0h40v45H0z"/></clipPath></defs></svg><svg aria-hidden="true" data-prefix="fas" data-icon="phone-alt" class="ksvg-inline--fa kfa-phone-alt kfa-w-16" viewBox="0 0 512 512" id="icon-phone" xmlns="http://www.w3.org/2000/svg"><path fill="#009F90" d="M497.39 361.8l-112-48a24 24 0 00-28 6.9l-49.6 60.6A370.66 370.66 0 01130.6 204.11l60.6-49.6a23.94 23.94 0 006.9-28l-48-112A24.16 24.16 0 00122.6.61l-104 24A24 24 0 000 48c0 256.5 207.9 464 464 464a24 24 0 0023.4-18.6l24-104a24.29 24.29 0 00-14.01-27.6z"/></svg><svg aria-hidden="true" data-prefix="fas" data-icon="ruble-sign" class="lsvg-inline--fa lfa-ruble-sign lfa-w-12" viewBox="0 0 384 512" id="icon-rouble" xmlns="http://www.w3.org/2000/svg"><path fill="currentColor" d="M239.36 320C324.48 320 384 260.542 384 175.071S324.48 32 239.36 32H76c-6.627 0-12 5.373-12 12v206.632H12c-6.627 0-12 5.373-12 12V308c0 6.627 5.373 12 12 12h52v32H12c-6.627 0-12 5.373-12 12v40c0 6.627 5.373 12 12 12h52v52c0 6.627 5.373 12 12 12h58.56c6.627 0 12-5.373 12-12v-52H308c6.627 0 12-5.373 12-12v-40c0-6.627-5.373-12-12-12H146.56v-32h92.8zm-92.8-219.252h78.72c46.72 0 74.88 29.11 74.88 74.323 0 45.832-28.16 75.561-76.16 75.561h-77.44V100.748z"/></svg><svg aria-hidden="true" data-prefix="fas" data-icon="satellite-dish" class="msvg-inline--fa mfa-satellite-dish mfa-w-16" viewBox="0 0 512 512" id="icon-sattelite" xmlns="http://www.w3.org/2000/svg"><path fill="currentColor" d="M305.45 462.59c7.391 7.298 6.188 20.097-3 25.004-77.714 41.802-176.726 29.91-242.344-35.709-65.602-65.603-77.51-164.523-35.692-242.331 4.891-9.095 17.69-10.298 25.003-3l116.812 116.813 27.394-27.394c-.688-2.61-1.594-5.001-1.594-7.814a32.004 32.004 0 1132.004 32.005c-2.797 0-5.204-.891-7.798-1.594l-27.41 27.41zm206.526-159.523a16.103 16.103 0 01-16.002 17.003H463.86a15.97 15.97 0 01-15.892-15.002C440.467 175.549 336.453 70.534 207.03 63.533a15.845 15.845 0 01-15.002-15.908V16.027A16.094 16.094 0 01209.03.024C372.255 8.62 503.475 139.841 511.976 303.067zm-96.012-.297a16.21 16.21 0 01-16.112 17.3h-32.207a16.069 16.069 0 01-15.893-14.705c-6.907-77.011-68.118-138.91-144.924-145.224a15.94 15.94 0 01-14.8-15.893v-32.114a16.134 16.134 0 0117.3-16.096c110.123 8.501 198.228 96.607 206.636 206.732z"/></svg><svg fill="none" viewBox="0 0 32 25" id="icon-search" xmlns="http://www.w3.org/2000/svg"><rect x="24.302" y="21.401" width="3.449" height="6.898" rx="1.724" transform="rotate(-60 24.302 21.4)" fill="#fff"/><circle cx="12.231" cy="12.551" r="10.071" stroke="#fff" stroke-width="4"/></svg><svg aria-hidden="true" data-prefix="fas" data-icon="chart-pie" class="osvg-inline--fa ofa-chart-pie ofa-w-17" viewBox="0 0 544 512" id="icon-stat" xmlns="http://www.w3.org/2000/svg"><path fill="currentColor" d="M527.79 288H290.5l158.03 158.03c6.04 6.04 15.98 6.53 22.19.68 38.7-36.46 65.32-85.61 73.13-140.86 1.34-9.46-6.51-17.85-16.06-17.85zm-15.83-64.8C503.72 103.74 408.26 8.28 288.8.04 279.68-.59 272 7.1 272 16.24V240h223.77c9.14 0 16.82-7.68 16.19-16.8zM224 288V50.71c0-9.55-8.39-17.4-17.84-16.06C86.99 51.49-4.1 155.6.14 280.37 4.5 408.51 114.83 513.59 243.03 511.98c50.4-.63 96.97-16.87 135.26-44.03 7.9-5.6 8.42-17.23 1.57-24.08L224 288z"/></svg><svg aria-hidden="true" data-prefix="fab" data-icon="telegram-plane" class="psvg-inline--fa pfa-telegram-plane pfa-w-14" viewBox="0 0 448 512" id="icon-submit" xmlns="http://www.w3.org/2000/svg"><path fill="currentColor" d="M446.7 98.6l-67.6 318.8c-5.1 22.5-18.4 28.1-37.3 17.5l-103-75.9-49.7 47.8c-5.5 5.5-10.1 10.1-20.7 10.1l7.4-104.9 190.9-172.5c8.3-7.4-1.8-11.5-12.9-4.1L117.8 284 16.2 252.2c-22.1-6.9-22.5-22.1 4.6-32.7L418.2 66.4c18.4-6.9 34.5 4.1 28.5 32.2z"/></svg><svg fill="none" viewBox="0 0 33 27" id="icon-twitter" xmlns="http://www.w3.org/2000/svg"><path d="M32.578 3.111a13.486 13.486 0 01-3.838 1.042A6.648 6.648 0 0031.68.49a13.422 13.422 0 01-4.244 1.605A6.706 6.706 0 0023.64.088 6.742 6.742 0 0019.4.784a6.648 6.648 0 00-2.938 3.111 6.564 6.564 0 00-.416 4.24 19.124 19.124 0 01-7.63-2.008 18.948 18.948 0 01-6.147-4.91 6.572 6.572 0 00-.115 6.453 6.645 6.645 0 002.184 2.386 6.716 6.716 0 01-3.027-.828v.085c0 1.529.534 3.01 1.511 4.193a6.698 6.698 0 003.85 2.298 6.795 6.795 0 01-3.018.114 6.626 6.626 0 002.378 3.29 6.73 6.73 0 003.866 1.306 13.495 13.495 0 01-8.302 2.835c-.533 0-1.065-.031-1.595-.093a19.037 19.037 0 0010.244 2.974c12.296 0 19.018-10.086 19.018-18.834 0-.284-.007-.571-.02-.856a13.517 13.517 0 003.333-3.424l.003-.005z" fill="#fff"/></svg><svg aria-hidden="true" data-prefix="fab" data-icon="vk" class="rsvg-inline--fa rfa-vk rfa-w-18" viewBox="0 0 576 512" id="icon-vk" xmlns="http://www.w3.org/2000/svg"><path fill="currentColor" d="M545 117.7c3.7-12.5 0-21.7-17.8-21.7h-58.9c-15 0-21.9 7.9-25.6 16.7 0 0-30 73.1-72.4 120.5-13.7 13.7-20 18.1-27.5 18.1-3.7 0-9.4-4.4-9.4-16.9V117.7c0-15-4.2-21.7-16.6-21.7h-92.6c-9.4 0-15 7-15 13.5 0 14.2 21.2 17.5 23.4 57.5v86.8c0 19-3.4 22.5-10.9 22.5-20 0-68.6-73.4-97.4-157.4-5.8-16.3-11.5-22.9-26.6-22.9H38.8c-16.8 0-20.2 7.9-20.2 16.7 0 15.6 20 93.1 93.1 195.5C160.4 378.1 229 416 291.4 416c37.5 0 42.1-8.4 42.1-22.9 0-66.8-3.4-73.1 15.4-73.1 8.7 0 23.7 4.4 58.7 38.1 40 40 46.6 57.9 69 57.9h58.9c16.8 0 25.3-8.4 20.4-25-11.2-34.9-86.9-106.7-90.3-111.5-8.7-11.2-6.2-16.2 0-26.2.1-.1 72-101.3 79.4-135.6z"/></svg><svg fill="none" viewBox="0 0 30 30" id="icon-yandex" xmlns="http://www.w3.org/2000/svg"><path d="M5.316 0A5.304 5.304 0 000 5.316v19.368A5.304 5.304 0 005.316 30H19.57L30 15.004 19.571 0H5.316zm7.983 5.477h3.387c.208 0 .327.076.327.255v18.667c0 .127-.06.204-.238.204h-1.842c-.118 0-.208-.102-.208-.178v-6.912h-1.487l-4.13 6.912c-.059.127-.177.178-.356.178H6.643c-.237 0-.386-.178-.237-.408l4.545-7.039c-2.436-.918-3.803-2.78-3.803-5.304 0-4.208 2.823-6.375 6.15-6.375zm-.09 1.631c-1.812 0-3.595 1.3-3.595 4.489 0 3.06 1.902 4.284 3.863 4.284h1.248V7.108H13.21z" fill="#fff"/></svg><svg fill="none" viewBox="0 0 78 76" id="service-01" xmlns="http://www.w3.org/2000/svg"><path d="M70.903 8.604h-33.77a14.298 14.298 0 00-5.231-6.262A14.084 14.084 0 0024.129 0c-2.761 0-5.463.814-7.773 2.342a14.297 14.297 0 00-5.232 6.262H7.097a7.067 7.067 0 00-5.016 2.102A7.214 7.214 0 000 15.774v40.15a7.214 7.214 0 002.08 5.068 7.067 7.067 0 005.017 2.102h27.798l-2.01 5.736h-5.917c-.377 0-.738.151-1.004.42a1.441 1.441 0 00-.416 1.014v4.302c0 .38.15.745.416 1.014s.627.42 1.004.42h24.064c.377 0 .738-.151 1.004-.42s.416-.634.416-1.014v-4.302c0-.38-.15-.745-.416-1.014a1.412 1.412 0 00-1.004-.42h-6.094l-2.01-5.736h27.975a7.067 7.067 0 005.016-2.102A7.215 7.215 0 0078 55.925V15.773a7.215 7.215 0 00-2.08-5.068 7.067 7.067 0 00-5.017-2.102zm-35.42 5.736a11.485 11.485 0 01-3.065 7.827 1.273 1.273 0 00-.101-.141L25.92 14.27l5.906-8.354A11.441 11.441 0 0134.53 9.74c.63 1.45.954 3.015.954 4.598zM24.13 2.867a11.2 11.2 0 015.392 1.378l-6.123 8.66H12.867a11.52 11.52 0 013.756-7.166 11.301 11.301 0 017.506-2.872zm-.665 12.905l6.67 8.088c.039.046.08.089.123.13a11.243 11.243 0 01-10.94.742 11.37 11.37 0 01-4.368-3.64 11.527 11.527 0 01-2.082-5.32h10.597zm26.149 55.925v1.434H28.387v-1.434h21.226zM35.895 68.83l2.01-5.736h2.012l2.01 5.736h-6.032zm39.266-12.905a4.33 4.33 0 01-1.249 3.04 4.242 4.242 0 01-3.009 1.261H7.097a4.242 4.242 0 01-3.01-1.261 4.33 4.33 0 01-1.248-3.04V54.49H75.16v1.434zm0-4.302H2.84v-35.85a4.33 4.33 0 011.249-3.04 4.242 4.242 0 013.009-1.261h3.124a14.484 14.484 0 00.128 6.298 14.398 14.398 0 002.787 5.635 14.217 14.217 0 004.91 3.885 14.074 14.074 0 0012.166 0 14.216 14.216 0 004.91-3.885 14.399 14.399 0 002.787-5.635c.504-2.064.548-4.215.128-6.298h32.866a4.242 4.242 0 013.01 1.261 4.33 4.33 0 011.248 3.04v35.85z" fill="#009F90"/></svg><svg fill="none" viewBox="0 0 76 76" id="service-02" xmlns="http://www.w3.org/2000/svg"><path d="M69.666 0H6.334A6.34 6.34 0 000 6.333v63.334A6.34 6.34 0 006.333 76h63.334A6.341 6.341 0 0076 69.667V6.333A6.341 6.341 0 0069.666 0zm3.8 69.667a3.8 3.8 0 01-3.8 3.8H6.334a3.8 3.8 0 01-3.8-3.8v-57h70.934v57zm0-59.534H2.533v-3.8a3.8 3.8 0 013.8-3.8h63.334a3.8 3.8 0 013.8 3.8v3.8z" fill="#009F90"/><path d="M8.867 5.067H7.6a1.267 1.267 0 100 2.533h1.267a1.267 1.267 0 100-2.533zM14.415 5.168a1.16 1.16 0 00-.963 0 1.463 1.463 0 00-.418.266c-.49.5-.49 1.3 0 1.799.123.111.264.201.418.266.307.135.656.135.963 0 .153-.065.294-.155.418-.266.49-.5.49-1.3 0-1.799a1.463 1.463 0 00-.418-.266zM19.486 5.156a1.267 1.267 0 00-1.385.278 1.463 1.463 0 00-.266.418 1.193 1.193 0 000 .963c.064.153.154.294.266.418.5.49 1.299.49 1.798 0 .112-.124.202-.265.266-.418.071-.15.106-.316.102-.482a1.267 1.267 0 00-.781-1.177zM68.4 5.067H25.333a1.267 1.267 0 100 2.533H68.4a1.267 1.267 0 100-2.533zM19.447 60.319c.058.053.12.1.188.14a25.22 25.22 0 0036.75-.011c.063-.037.123-.08.178-.127.041-.058.078-.12.109-.185 8.889-9.642 8.889-24.492 0-34.134L56.667 26a1.24 1.24 0 00-.11-.185 1.135 1.135 0 00-.188-.142 25.219 25.219 0 00-36.733 0c-.068.04-.13.088-.189.142a1.24 1.24 0 00-.109.185c-8.888 9.642-8.888 24.492 0 34.134.031.064.067.126.11.185zm25.463 4.467a23.275 23.275 0 004.313-7.98v-.004a23.19 23.19 0 014.475 2.754 22.796 22.796 0 01-8.788 5.23zm10.536-7.07a25.691 25.691 0 00-5.505-3.376 45.155 45.155 0 001.326-10.007h9.468a22.674 22.674 0 01-5.29 13.383zm5.29-15.916h-9.47a45.17 45.17 0 00-1.325-10.007 25.69 25.69 0 005.505-3.373 22.673 22.673 0 015.29 13.38zm-7.038-15.227a23.186 23.186 0 01-4.475 2.754 23.278 23.278 0 00-4.313-7.984 22.805 22.805 0 018.788 5.23zm-14.431-6.129c3.104.813 5.85 4.546 7.58 9.83a26.895 26.895 0 01-7.58 1.443V20.444zm0 13.808a29.297 29.297 0 008.278-1.52 42.88 42.88 0 011.19 9.068h-9.468v-7.548zm0 10.081h9.468a42.885 42.885 0 01-1.19 9.066 29.292 29.292 0 00-8.279-1.518v-7.548zm0 10.083c2.583.114 5.136.6 7.58 1.444-1.73 5.285-4.476 9.017-7.58 9.83V54.417zm-16.965 5.136a23.19 23.19 0 014.475-2.746v-.004a23.275 23.275 0 004.313 7.98 22.801 22.801 0 01-8.788-5.23zm14.431 6.137c-3.104-.813-5.85-4.546-7.58-9.83a26.897 26.897 0 017.58-1.443V65.69zm0-13.808a29.297 29.297 0 00-8.279 1.52 42.889 42.889 0 01-1.19-9.068h9.47v7.548zm0-10.081h-9.468a42.879 42.879 0 011.19-9.066 29.294 29.294 0 008.278 1.518V41.8zm0-21.357v11.274a26.895 26.895 0 01-7.58-1.444c1.73-5.284 4.476-9.017 7.58-9.83zm-5.643.896a23.278 23.278 0 00-4.313 7.988v-.004a23.181 23.181 0 01-4.475-2.754 22.802 22.802 0 018.788-5.23zm-10.536 7.079a25.686 25.686 0 005.505 3.375A45.161 45.161 0 0024.733 41.8h-9.469a22.675 22.675 0 015.29-13.382zm4.179 15.915a45.177 45.177 0 001.326 10.007 25.691 25.691 0 00-5.505 3.373 22.674 22.674 0 01-5.29-13.38h9.469z" fill="#009F90"/></svg><svg fill="none" viewBox="0 0 69 76" id="service-03" xmlns="http://www.w3.org/2000/svg"><path d="M44.722 15.2H24.278c-3.527.004-6.385 2.837-6.39 6.333v17.734c.005 3.496 2.863 6.329 6.39 6.333h20.444c3.527-.004 6.385-2.837 6.39-6.333V21.533c-.005-3.496-2.863-6.329-6.39-6.333zm3.834 24.067c0 2.098-1.717 3.8-3.834 3.8H24.278c-2.117 0-3.834-1.702-3.834-3.8V21.533c0-2.098 1.717-3.8 3.834-3.8h20.444c2.117 0 3.834 1.702 3.834 3.8v17.734z" fill="#009F90"/><path d="M24.278 22.8h2.555c.706 0 1.278-.567 1.278-1.267s-.572-1.266-1.278-1.266h-2.555c-.706 0-1.278.567-1.278 1.266 0 .7.572 1.267 1.278 1.267zM31.945 22.8h10.222c.706 0 1.277-.567 1.277-1.267s-.572-1.266-1.277-1.266H31.944c-.705 0-1.277.567-1.277 1.266 0 .7.572 1.267 1.277 1.267zM42.167 30.4H39.61c-.706 0-1.278.567-1.278 1.267s.573 1.266 1.278 1.266h2.556c.706 0 1.277-.567 1.277-1.266 0-.7-.572-1.267-1.277-1.267zM34.5 30.4H24.278c-.706 0-1.278.567-1.278 1.267s.572 1.266 1.278 1.266H34.5c.706 0 1.278-.567 1.278-1.266 0-.7-.572-1.267-1.278-1.267zM44.722 25.333H24.278c-.706 0-1.278.567-1.278 1.267s.572 1.267 1.278 1.267h20.444c.706 0 1.278-.567 1.278-1.267s-.572-1.267-1.278-1.267z" fill="#009F90"/><path d="M6.389 46.867h1.278V53.2c0 2.099 1.716 3.8 3.833 3.8h10.222c.706 0 1.278-.567 1.278-1.267s-.572-1.266-1.278-1.266H11.5a1.272 1.272 0 01-1.278-1.267v-6.333h2.556c0 2.098 1.716 3.8 3.833 3.8h10.222v8.866c0 .7.572 1.267 1.278 1.267.706 0 1.278-.567 1.278-1.267v-8.866H39.61v8.866c0 .7.572 1.267 1.278 1.267.706 0 1.278-.567 1.278-1.267v-8.866h10.222c2.117 0 3.833-1.702 3.833-3.8h6.39c2.822 0 5.11-2.269 5.11-5.067V29.134c0-2.799-2.288-5.067-5.11-5.067h-1.279V7.6C61.33 3.404 57.9.004 53.668 0H15.333c-4.232.004-7.662 3.404-7.666 7.6v16.467H6.389c-2.823 0-5.111 2.268-5.111 5.066V41.8c0 2.798 2.288 5.067 5.111 5.067zm47.278 0c0 .7-.572 1.266-1.278 1.266H16.611a1.272 1.272 0 01-1.278-1.266V13.933c0-.7.572-1.266 1.278-1.266H52.39c.706 0 1.278.567 1.278 1.266v32.934zM62.61 26.6a2.544 2.544 0 012.556 2.533V41.8c0 1.4-1.144 2.533-2.556 2.533h-6.389V26.6h6.39zm-52.389-19c0-2.798 2.289-5.067 5.111-5.067h38.334c2.822 0 5.11 2.269 5.11 5.067v16.467h-2.555V13.933c0-2.098-1.716-3.8-3.833-3.8H16.61c-2.117 0-3.833 1.702-3.833 3.8v10.134h-2.556V7.6zM3.833 29.133c0-1.399 1.145-2.533 2.556-2.533h6.389v17.733H6.389A2.545 2.545 0 013.833 41.8V29.133z" fill="#009F90"/><path d="M60.056 59.533H47.278c-.706 0-1.278.567-1.278 1.267v6.817L35.071 62.2a1.288 1.288 0 00-1.142 0L23 67.617V60.8c0-.7-.572-1.267-1.278-1.267H8.944C4.007 59.54.006 63.505 0 68.4v6.333C0 75.433.572 76 1.278 76h66.444c.706 0 1.278-.567 1.278-1.267V68.4c-.005-4.895-4.007-8.861-8.944-8.867zm6.389 13.934H2.555V68.4c.005-3.496 2.863-6.33 6.39-6.333h11.5v7.6c-.003.44.225.85.602 1.082.377.233.85.254 1.246.058L34.5 64.749l12.207 6.058c.397.196.869.175 1.246-.058.377-.232.605-.642.603-1.082v-7.6h11.5c3.526.004 6.384 2.837 6.389 6.333v5.067z" fill="#009F90"/></svg><svg fill="none" viewBox="0 0 945 720" id="service-bg" xmlns="http://www.w3.org/2000/svg"><path d="M861.93 488.7c-3.96.945-9.337 5.827-10.89 10.283l-7.875 18.99c-1.777 3.644-1.44 10.867.675 14.332l31.433 51.39c6.727 11.025 5.332 26.64-3.713 36.765l-26.617 26.595c-9.27 8.235-25.628 9.72-36.293 3.263l-51.39-31.433c-3.217-1.98-10.125-2.677-14.962-.405l-18.968 7.83c-3.825 1.328-8.707 6.682-9.652 10.643l-14.108 58.589c-2.992 12.421-14.85 22.635-27.585 23.806 0 0-7.807.719-19.507.719-11.7 0-19.508-.719-19.53-.719a32.496 32.496 0 01-27.563-23.806l-14.13-58.589c-.945-3.938-5.805-9.315-10.26-10.868l-18.99-7.875c-3.352-1.642-11.115-1.305-14.332.675l-51.39 31.433c-4.523 2.767-9.923 4.229-15.66 4.229-7.763 0-15.278-2.722-21.105-7.919l-26.595-26.618a31.653 31.653 0 01-3.263-36.292l31.433-51.39c2.115-3.465 2.452-10.688.405-14.963l-7.83-18.968c-1.328-3.825-6.683-8.707-10.643-9.652l-58.59-14.108a32.53 32.53 0 01-23.805-27.585s-.72-7.807-.72-19.507c0-11.7.72-19.507.72-19.53a32.555 32.555 0 0123.805-27.585l58.568-14.085c3.96-.945 9.337-5.827 10.89-10.283l7.875-18.99c1.777-3.644 1.44-10.867-.675-14.332l-31.433-51.39c-6.727-11.025-5.332-26.64 3.713-36.765l26.617-26.595c9.293-8.257 25.673-9.742 36.293-3.262l51.39 31.432c3.217 1.958 10.147 2.7 14.962.405l18.968-7.83c3.825-1.327 8.685-6.683 9.63-10.643l14.13-58.589a32.534 32.534 0 0127.585-23.805c.045.022 7.852-.698 19.552-.698s19.508.72 19.53.72a32.551 32.551 0 0127.585 23.805L713.7 218.07c.945 3.96 5.828 9.337 10.283 10.89l18.99 7.875c3.375 1.643 11.115 1.283 14.332-.675l51.368-31.432c10.642-6.48 26.662-5.356 36.765 3.689l26.595 26.618a31.659 31.659 0 013.262 36.292l-31.432 51.391c-2.115 3.465-2.453 10.687-.405 14.962l7.83 18.967c1.327 3.826 6.682 8.708 10.642 9.653l58.59 14.107a32.535 32.535 0 0123.805 27.585c-.045 0 .675 7.808.675 19.508s-.72 19.508-.72 19.53a32.555 32.555 0 01-23.805 27.585L861.93 488.7zm60.57-61.2c0-10.305-.607-17.258-.63-17.483a10.49 10.49 0 00-6.66-7.74l-58.59-14.107c-11.362-2.745-22.815-13.14-26.37-23.557l-7.29-17.708c-5.13-10.507-4.41-25.942 1.688-35.932l31.432-51.368c1.508-2.497 1.08-7.447-.405-9.135l-25.672-25.695c-2.048-1.823-7.268-2.273-9.608-.855l-51.39 31.433c-9.742 5.962-26.437 6.367-35.28 1.98l-17.73-7.336c-11.047-3.802-21.442-15.254-24.187-26.64l-14.085-58.567a10.467 10.467 0 00-7.74-6.683c-.225 0-7.178-.607-17.483-.607s-17.257.607-17.482.63a10.489 10.489 0 00-7.74 6.66l-14.108 58.567c-2.745 11.363-13.117 22.838-23.557 26.393l-17.708 7.29c-10.282 5.04-26.212 4.252-35.932-1.687l-51.368-31.433c-2.34-1.418-7.875-.675-9.135.405l-25.695 25.672c-1.935 2.183-2.362 7.111-.855 9.608l31.433 51.39c6.097 9.967 6.817 25.425 1.98 35.28l-7.335 17.73c-3.803 11.047-15.255 21.443-26.64 24.188l-58.568 14.084a10.467 10.467 0 00-6.682 7.74c0 .225-.608 7.178-.608 17.483s.608 17.258.63 17.483a10.487 10.487 0 006.66 7.74l58.59 14.107c11.363 2.745 22.815 13.14 26.37 23.558l7.29 17.707c5.13 10.508 4.41 25.943-1.687 35.933l-31.433 51.367c-1.507 2.497-1.08 7.447.405 9.135l25.673 25.695a8.956 8.956 0 005.647 1.778 7.796 7.796 0 003.938-.923l51.39-31.433c9.72-5.94 26.415-6.367 35.28-1.98l17.73 7.336c11.047 3.802 21.442 15.277 24.165 26.639l14.107 58.568a10.467 10.467 0 007.74 6.683c.248 0 7.2.607 17.505.607s17.258-.607 17.483-.63a10.49 10.49 0 007.74-6.66l14.107-58.59c2.745-11.362 13.14-22.815 23.558-26.37l17.707-7.29a36.745 36.745 0 0116.088-3.42c7.402 0 14.445 1.823 19.845 5.13l51.367 31.433c2.34 1.417 7.898.652 9.135-.405l25.695-25.695c1.935-2.183 2.363-7.111.855-9.608l-31.432-51.39c-6.098-9.968-6.818-25.425-1.98-35.28l7.335-17.73c3.802-11.047 15.255-21.443 26.64-24.188l58.567-14.084a10.467 10.467 0 006.683-7.74c0-.225.607-7.178.607-17.483z" fill="url(#wpaint0_linear)"/><path d="M652.5 551.25c-68.242 0-123.75-55.508-123.75-123.75 0-68.243 55.508-123.75 123.75-123.75 68.243 0 123.75 55.507 123.75 123.75 0 68.242-55.507 123.75-123.75 123.75zm0-225c-55.822 0-101.25 45.427-101.25 101.25 0 55.822 45.428 101.25 101.25 101.25 55.823 0 101.25-45.428 101.25-101.25 0-55.823-45.427-101.25-101.25-101.25z" fill="url(#wpaint1_linear)"/><path d="M326.768 119.564a9.546 9.546 0 005.827 3.105l41.873-.405a26.101 26.101 0 0123.692 16.785s1.845 5.242 3.87 13.275c2.025 8.032 2.88 13.522 2.88 13.522 1.575 10.148-4.072 21.375-13.14 26.123l-36.922 19.35a9.787 9.787 0 00-3.735 6.142l-2.093 14.288a9.587 9.587 0 001.89 6.3l29.745 29.16c7.448 7.29 9.405 19.755 4.275 29.542l-13.477 22.5c-5.693 8.37-18.023 12.645-27.698 9.63l-41.04-12.555c-2.227 0-4.455.855-5.715 1.868l-11.587 8.55a9.668 9.668 0 00-3.105 5.827l.405 41.67c.09 10.26-7.11 20.543-16.785 23.918 0 0-5.243 1.845-13.275 3.87-8.033 2.025-13.523 2.88-13.523 2.88-.585.09-2.925.27-3.51.27a26.322 26.322 0 01-22.612-13.41l-19.35-36.923a9.792 9.792 0 00-6.143-3.735l-14.917-2.16c-2.25 0-4.905 1.17-5.648 1.935l-29.16 29.745c-7.087 7.245-19.035 9.833-29.542 4.275L85.77 371.429c-8.595-5.85-12.757-17.775-9.652-27.698l12.42-39.757a9.744 9.744 0 00-1.755-6.998l-8.55-11.587a9.537 9.537 0 00-5.828-3.105l-41.872.405A26.101 26.101 0 016.84 265.904s-1.845-5.243-3.87-13.275C.945 244.596.09 239.106.09 239.106a26.1 26.1 0 0113.14-26.122l36.923-19.35a9.79 9.79 0 003.735-6.143l2.07-14.242a9.585 9.585 0 00-1.89-6.3l-29.745-29.16c-7.448-7.29-9.405-19.755-4.275-29.543l13.477-22.5c5.693-8.347 18-12.667 27.698-9.652l41.062 12.555A9.72 9.72 0 00108 86.78l11.588-8.55a9.679 9.679 0 003.105-5.827l-.405-41.67a26.056 26.056 0 0116.785-23.918s5.242-1.845 13.275-3.87C160.38.921 165.87.066 165.87.066a61.36 61.36 0 013.51-.247 26.322 26.322 0 0122.613 13.41l19.35 36.922a9.785 9.785 0 006.142 3.735l14.918 2.138a9.831 9.831 0 005.647-1.935l29.16-29.745a25.023 25.023 0 0129.543-4.275l22.5 13.455c8.595 5.85 12.757 17.775 9.652 27.697l-12.42 39.758a9.74 9.74 0 001.755 6.997l8.528 11.588zm-18.45 12.87l-7.718-10.485c-6.03-7.133-8.37-18.765-5.58-27.653l12.398-39.735c.112-.63-.383-2.047-.27-2.07l-21.33-12.78-2.543.383-29.182 29.745c-5.175 5.265-13.703 8.685-21.713 8.685-1.541.024-3.08-.12-4.59-.428l-12.937-1.912a31.338 31.338 0 01-23.468-15.615l-19.327-36.9a4.164 4.164 0 00-2.7-1.373c-.248.023-4.838.788-11.543 2.453-6.682 1.687-11.092 3.195-11.295 3.285-.697.292-1.71 1.755-1.755 2.475l.405 41.67c.09 9.315-5.512 19.777-12.757 24.502L121.95 104.4c-6.952 5.872-18.877 8.347-27.652 5.58l-39.915-12.42c-.945 0-2.003.585-1.868.292l-12.78 21.33c-.247.585 0 2.07.383 2.543l29.745 29.182c6.637 6.548 10.08 17.888 8.257 26.303l-1.89 12.937c-.81 9.27-7.38 19.148-15.637 23.468l-36.9 19.327a4.252 4.252 0 00-1.373 2.7c.66 3.88 1.478 7.73 2.453 11.543.933 3.81 2.029 7.578 3.285 11.295.292.697 1.755 1.71 2.475 1.755l41.895-.405c9.247 0 19.597 5.602 24.277 12.757l7.695 10.463a31.182 31.182 0 015.58 27.652l-12.397 39.735c-.113.608.382 2.048.27 2.07l21.33 12.78 2.542-.382 29.183-29.745c5.175-5.265 13.702-8.685 21.712-8.685 1.541-.025 3.08.119 4.59.427l12.938 1.913a31.343 31.343 0 0123.467 15.615l19.328 36.9a4.16 4.16 0 002.7 1.372 144.17 144.17 0 0011.542-2.452 137.056 137.056 0 0011.295-3.285c.698-.293 1.71-1.755 1.755-2.475l-.405-41.67c-.09-9.315 5.513-19.778 12.758-24.503l10.462-7.717a31.21 31.21 0 0127.675-5.58l39.915 12.42c.968 0 2.025-.518 1.868-.293l12.78-21.33c.247-.585 0-2.07-.383-2.542l-29.745-29.183c-6.637-6.547-10.08-17.887-8.257-26.302l1.89-12.915a31.32 31.32 0 0115.637-23.468l36.9-19.327a4.252 4.252 0 001.373-2.7c-.023-.248-.788-4.838-2.453-11.543-1.687-6.682-3.195-11.092-3.285-11.295-.292-.697-1.755-1.71-2.475-1.755l-41.895.405c-9.247 0-19.597-5.602-24.277-12.757z" fill="url(#wpaint2_linear)"/><path d="M202.5 270c-37.215 0-67.5-30.285-67.5-67.5s30.285-67.5 67.5-67.5 67.5 30.285 67.5 67.5-30.285 67.5-67.5 67.5zm0-112.5c-24.818 0-45 20.182-45 45 0 24.817 20.182 45 45 45 24.817 0 45-20.183 45-45 0-24.818-20.183-45-45-45z" fill="url(#wpaint3_linear)"/><defs><linearGradient id="wpaint0_linear" x1="652.455" y1="135" x2="652.455" y2="720.067" gradientUnits="userSpaceOnUse"><stop/><stop offset="1" stop-color="#fff" stop-opacity="0"/></linearGradient><linearGradient id="wpaint1_linear" x1="652.5" y1="303.75" x2="652.5" y2="551.25" gradientUnits="userSpaceOnUse"><stop/><stop offset="1" stop-color="#fff" stop-opacity="0"/></linearGradient><linearGradient id="wpaint2_linear" x1="202.524" y1="-.181" x2="202.524" y2="405.179" gradientUnits="userSpaceOnUse"><stop/><stop offset="1" stop-color="#fff" stop-opacity="0"/></linearGradient><linearGradient id="wpaint3_linear" x1="202.5" y1="135" x2="202.5" y2="270" gradientUnits="userSpaceOnUse"><stop/><stop offset="1" stop-color="#fff" stop-opacity="0"/></linearGradient></defs></svg><svg fill="none" viewBox="0 0 552 552" id="specialize-bg" xmlns="http://www.w3.org/2000/svg"><path d="M276 536.185l57.819-57.819m72.274 0a72.273 72.273 0 10-51.106-123.379 72.275 72.275 0 0051.106 123.379v0zM218.181 73.634L276 15.814l-57.819 57.82zM145.907 218.18a72.273 72.273 0 10.003-144.547 72.273 72.273 0 00-.003 144.547v0zm14.455 173.457l231.276-231.276-231.276 231.276zM88.088 536.185a72.273 72.273 0 10.002-144.547 72.273 72.273 0 00-.002 144.547v0zm375.824-375.823a72.273 72.273 0 10-51.106-123.379 72.273 72.273 0 0051.106 123.379z" stroke="url(#xpaint0_linear)" stroke-width="30" stroke-linecap="round" stroke-linejoin="round"/><defs><linearGradient id="xpaint0_linear" x1="276" y1="15.815" x2="276" y2="536.185" gradientUnits="userSpaceOnUse"><stop/><stop offset="1" stop-color="#fff" stop-opacity="0"/></linearGradient></defs></svg></svg>