<svg width="308" height="308" viewBox="0 0 308 308" fill="none" xmlns="http://www.w3.org/2000/svg">
<circle cx="4" cy="4" r="3.5" stroke="#D5DCE9" stroke-dasharray="2 2"/>
<circle cx="24" cy="4" r="3.5" stroke="#D5DCE9" stroke-dasharray="2 2"/>
<circle cx="44" cy="4" r="3.5" stroke="#D5DCE9" stroke-dasharray="2 2"/>
<circle cx="64" cy="4" r="3.5" stroke="#D5DCE9" stroke-dasharray="2 2"/>
<circle cx="84" cy="4" r="3.5" stroke="#D5DCE9" stroke-dasharray="2 2"/>
<circle cx="104" cy="4" r="3.5" stroke="#D5DCE9" stroke-dasharray="2 2"/>
<circle cx="124" cy="4" r="3.5" stroke="#D5DCE9" stroke-dasharray="2 2"/>
<circle cx="144" cy="4" r="3.5" stroke="#D5DCE9" stroke-dasharray="2 2"/>
<circle cx="164" cy="4" r="3.5" stroke="#D5DCE9" stroke-dasharray="2 2"/>
<circle cx="184" cy="4" r="3.5" stroke="#D5DCE9" stroke-dasharray="2 2"/>
<circle cx="204" cy="4" r="3.5" stroke="#D5DCE9" stroke-dasharray="2 2"/>
<circle cx="224" cy="4" r="3.5" stroke="#D5DCE9" stroke-dasharray="2 2"/>
<circle cx="244" cy="4" r="3.5" stroke="#D5DCE9" stroke-dasharray="2 2"/>
<circle cx="264" cy="4" r="3.5" stroke="#D5DCE9" stroke-dasharray="2 2"/>
<circle cx="284" cy="4" r="3.5" stroke="#D5DCE9" stroke-dasharray="2 2"/>
<circle cx="304" cy="4" r="3.5" stroke="#D5DCE9" stroke-dasharray="2 2"/>
<circle cx="4" cy="24" r="3.5" stroke="#D5DCE9" stroke-dasharray="2 2"/>
<circle cx="24" cy="24" r="3.5" stroke="#D5DCE9" stroke-dasharray="2 2"/>
<circle cx="44" cy="24" r="3.5" stroke="#D5DCE9" stroke-dasharray="2 2"/>
<circle cx="64" cy="24" r="3.5" stroke="#D5DCE9" stroke-dasharray="2 2"/>
<circle cx="84" cy="24" r="3.5" stroke="#D5DCE9" stroke-dasharray="2 2"/>
<circle cx="104" cy="24" r="3.5" stroke="#D5DCE9" stroke-dasharray="2 2"/>
<circle cx="124" cy="24" r="3.5" stroke="#D5DCE9" stroke-dasharray="2 2"/>
<circle cx="144" cy="24" r="3.5" stroke="#D5DCE9" stroke-dasharray="2 2"/>
<circle cx="164" cy="24" r="3.5" stroke="#D5DCE9" stroke-dasharray="2 2"/>
<circle cx="184" cy="24" r="3.5" stroke="#D5DCE9" stroke-dasharray="2 2"/>
<circle cx="204" cy="24" r="3.5" stroke="#D5DCE9" stroke-dasharray="2 2"/>
<circle cx="224" cy="24" r="3.5" stroke="#D5DCE9" stroke-dasharray="2 2"/>
<circle cx="244" cy="24" r="3.5" stroke="#D5DCE9" stroke-dasharray="2 2"/>
<circle cx="264" cy="24" r="3.5" stroke="#D5DCE9" stroke-dasharray="2 2"/>
<circle cx="284" cy="24" r="3.5" stroke="#D5DCE9" stroke-dasharray="2 2"/>
<circle cx="304" cy="24" r="3.5" stroke="#D5DCE9" stroke-dasharray="2 2"/>
<circle cx="4" cy="44" r="3.5" stroke="#D5DCE9" stroke-dasharray="2 2"/>
<circle cx="24" cy="44" r="3.5" stroke="#D5DCE9" stroke-dasharray="2 2"/>
<circle cx="44" cy="44" r="3.5" stroke="#D5DCE9" stroke-dasharray="2 2"/>
<circle cx="64" cy="44" r="3.5" stroke="#D5DCE9" stroke-dasharray="2 2"/>
<circle cx="84" cy="44" r="3.5" stroke="#D5DCE9" stroke-dasharray="2 2"/>
<circle cx="104" cy="44" r="3.5" stroke="#D5DCE9" stroke-dasharray="2 2"/>
<circle cx="124" cy="44" r="3.5" stroke="#D5DCE9" stroke-dasharray="2 2"/>
<circle cx="144" cy="44" r="3.5" stroke="#D5DCE9" stroke-dasharray="2 2"/>
<circle cx="164" cy="44" r="3.5" stroke="#D5DCE9" stroke-dasharray="2 2"/>
<circle cx="184" cy="44" r="3.5" stroke="#D5DCE9" stroke-dasharray="2 2"/>
<circle cx="204" cy="44" r="3.5" stroke="#D5DCE9" stroke-dasharray="2 2"/>
<circle cx="224" cy="44" r="3.5" stroke="#D5DCE9" stroke-dasharray="2 2"/>
<circle cx="244" cy="44" r="3.5" stroke="#D5DCE9" stroke-dasharray="2 2"/>
<circle cx="264" cy="44" r="3.5" stroke="#D5DCE9" stroke-dasharray="2 2"/>
<circle cx="284" cy="44" r="3.5" stroke="#D5DCE9" stroke-dasharray="2 2"/>
<circle cx="304" cy="44" r="3.5" stroke="#D5DCE9" stroke-dasharray="2 2"/>
<circle cx="4" cy="64" r="3.5" stroke="#D5DCE9" stroke-dasharray="2 2"/>
<circle cx="24" cy="64" r="3.5" stroke="#D5DCE9" stroke-dasharray="2 2"/>
<circle cx="44" cy="64" r="3.5" stroke="#D5DCE9" stroke-dasharray="2 2"/>
<circle cx="64" cy="64" r="3.5" stroke="#D5DCE9" stroke-dasharray="2 2"/>
<circle cx="84" cy="64" r="3.5" stroke="#D5DCE9" stroke-dasharray="2 2"/>
<circle cx="104" cy="64" r="3.5" stroke="#D5DCE9" stroke-dasharray="2 2"/>
<circle cx="124" cy="64" r="3.5" stroke="#D5DCE9" stroke-dasharray="2 2"/>
<circle cx="144" cy="64" r="3.5" stroke="#D5DCE9" stroke-dasharray="2 2"/>
<circle cx="164" cy="64" r="3.5" stroke="#D5DCE9" stroke-dasharray="2 2"/>
<circle cx="184" cy="64" r="3.5" stroke="#D5DCE9" stroke-dasharray="2 2"/>
<circle cx="204" cy="64" r="3.5" stroke="#D5DCE9" stroke-dasharray="2 2"/>
<circle cx="224" cy="64" r="3.5" stroke="#D5DCE9" stroke-dasharray="2 2"/>
<circle cx="244" cy="64" r="3.5" stroke="#D5DCE9" stroke-dasharray="2 2"/>
<circle cx="264" cy="64" r="3.5" stroke="#D5DCE9" stroke-dasharray="2 2"/>
<circle cx="284" cy="64" r="3.5" stroke="#D5DCE9" stroke-dasharray="2 2"/>
<circle cx="304" cy="64" r="3.5" stroke="#D5DCE9" stroke-dasharray="2 2"/>
<circle cx="4" cy="84" r="3.5" stroke="#D5DCE9" stroke-dasharray="2 2"/>
<circle cx="24" cy="84" r="3.5" stroke="#D5DCE9" stroke-dasharray="2 2"/>
<circle cx="44" cy="84" r="3.5" stroke="#D5DCE9" stroke-dasharray="2 2"/>
<circle cx="64" cy="84" r="3.5" stroke="#D5DCE9" stroke-dasharray="2 2"/>
<circle cx="84" cy="84" r="3.5" stroke="#D5DCE9" stroke-dasharray="2 2"/>
<circle cx="104" cy="84" r="3.5" stroke="#D5DCE9" stroke-dasharray="2 2"/>
<circle cx="124" cy="84" r="3.5" stroke="#D5DCE9" stroke-dasharray="2 2"/>
<circle cx="144" cy="84" r="3.5" stroke="#D5DCE9" stroke-dasharray="2 2"/>
<circle cx="164" cy="84" r="3.5" stroke="#D5DCE9" stroke-dasharray="2 2"/>
<circle cx="184" cy="84" r="3.5" stroke="#D5DCE9" stroke-dasharray="2 2"/>
<circle cx="204" cy="84" r="3.5" stroke="#D5DCE9" stroke-dasharray="2 2"/>
<circle cx="224" cy="84" r="3.5" stroke="#D5DCE9" stroke-dasharray="2 2"/>
<circle cx="244" cy="84" r="3.5" stroke="#D5DCE9" stroke-dasharray="2 2"/>
<circle cx="264" cy="84" r="3.5" stroke="#D5DCE9" stroke-dasharray="2 2"/>
<circle cx="284" cy="84" r="3.5" stroke="#D5DCE9" stroke-dasharray="2 2"/>
<circle cx="304" cy="84" r="3.5" stroke="#D5DCE9" stroke-dasharray="2 2"/>
<circle cx="4" cy="104" r="3.5" stroke="#D5DCE9" stroke-dasharray="2 2"/>
<circle cx="24" cy="104" r="3.5" stroke="#D5DCE9" stroke-dasharray="2 2"/>
<circle cx="44" cy="104" r="3.5" stroke="#D5DCE9" stroke-dasharray="2 2"/>
<circle cx="64" cy="104" r="3.5" stroke="#D5DCE9" stroke-dasharray="2 2"/>
<circle cx="84" cy="104" r="3.5" stroke="#D5DCE9" stroke-dasharray="2 2"/>
<circle cx="104" cy="104" r="3.5" stroke="#D5DCE9" stroke-dasharray="2 2"/>
<circle cx="124" cy="104" r="3.5" stroke="#D5DCE9" stroke-dasharray="2 2"/>
<circle cx="144" cy="104" r="3.5" stroke="#D5DCE9" stroke-dasharray="2 2"/>
<circle cx="164" cy="104" r="3.5" stroke="#D5DCE9" stroke-dasharray="2 2"/>
<circle cx="184" cy="104" r="3.5" stroke="#D5DCE9" stroke-dasharray="2 2"/>
<circle cx="204" cy="104" r="3.5" stroke="#D5DCE9" stroke-dasharray="2 2"/>
<circle cx="224" cy="104" r="3.5" stroke="#D5DCE9" stroke-dasharray="2 2"/>
<circle cx="244" cy="104" r="3.5" stroke="#D5DCE9" stroke-dasharray="2 2"/>
<circle cx="264" cy="104" r="3.5" stroke="#D5DCE9" stroke-dasharray="2 2"/>
<circle cx="284" cy="104" r="3.5" stroke="#D5DCE9" stroke-dasharray="2 2"/>
<circle cx="304" cy="104" r="3.5" stroke="#D5DCE9" stroke-dasharray="2 2"/>
<circle cx="4" cy="124" r="3.5" stroke="#D5DCE9" stroke-dasharray="2 2"/>
<circle cx="24" cy="124" r="3.5" stroke="#D5DCE9" stroke-dasharray="2 2"/>
<circle cx="44" cy="124" r="3.5" stroke="#D5DCE9" stroke-dasharray="2 2"/>
<circle cx="64" cy="124" r="3.5" stroke="#D5DCE9" stroke-dasharray="2 2"/>
<circle cx="84" cy="124" r="3.5" stroke="#D5DCE9" stroke-dasharray="2 2"/>
<circle cx="104" cy="124" r="3.5" stroke="#D5DCE9" stroke-dasharray="2 2"/>
<circle cx="124" cy="124" r="3.5" stroke="#D5DCE9" stroke-dasharray="2 2"/>
<circle cx="144" cy="124" r="3.5" stroke="#D5DCE9" stroke-dasharray="2 2"/>
<circle cx="164" cy="124" r="3.5" stroke="#D5DCE9" stroke-dasharray="2 2"/>
<circle cx="184" cy="124" r="3.5" stroke="#D5DCE9" stroke-dasharray="2 2"/>
<circle cx="204" cy="124" r="3.5" stroke="#D5DCE9" stroke-dasharray="2 2"/>
<circle cx="224" cy="124" r="3.5" stroke="#D5DCE9" stroke-dasharray="2 2"/>
<circle cx="244" cy="124" r="3.5" stroke="#D5DCE9" stroke-dasharray="2 2"/>
<circle cx="264" cy="124" r="3.5" stroke="#D5DCE9" stroke-dasharray="2 2"/>
<circle cx="284" cy="124" r="3.5" stroke="#D5DCE9" stroke-dasharray="2 2"/>
<circle cx="304" cy="124" r="3.5" stroke="#D5DCE9" stroke-dasharray="2 2"/>
<circle cx="4" cy="144" r="3.5" stroke="#D5DCE9" stroke-dasharray="2 2"/>
<circle cx="24" cy="144" r="3.5" stroke="#D5DCE9" stroke-dasharray="2 2"/>
<circle cx="44" cy="144" r="3.5" stroke="#D5DCE9" stroke-dasharray="2 2"/>
<circle cx="64" cy="144" r="3.5" stroke="#D5DCE9" stroke-dasharray="2 2"/>
<circle cx="84" cy="144" r="3.5" stroke="#D5DCE9" stroke-dasharray="2 2"/>
<circle cx="104" cy="144" r="3.5" stroke="#D5DCE9" stroke-dasharray="2 2"/>
<circle cx="124" cy="144" r="3.5" stroke="#D5DCE9" stroke-dasharray="2 2"/>
<circle cx="144" cy="144" r="3.5" stroke="#D5DCE9" stroke-dasharray="2 2"/>
<circle cx="164" cy="144" r="3.5" stroke="#D5DCE9" stroke-dasharray="2 2"/>
<circle cx="184" cy="144" r="3.5" stroke="#D5DCE9" stroke-dasharray="2 2"/>
<circle cx="204" cy="144" r="3.5" stroke="#D5DCE9" stroke-dasharray="2 2"/>
<circle cx="224" cy="144" r="3.5" stroke="#D5DCE9" stroke-dasharray="2 2"/>
<circle cx="244" cy="144" r="3.5" stroke="#D5DCE9" stroke-dasharray="2 2"/>
<circle cx="264" cy="144" r="3.5" stroke="#D5DCE9" stroke-dasharray="2 2"/>
<circle cx="284" cy="144" r="3.5" stroke="#D5DCE9" stroke-dasharray="2 2"/>
<circle cx="304" cy="144" r="3.5" stroke="#D5DCE9" stroke-dasharray="2 2"/>
<circle cx="4" cy="164" r="3.5" stroke="#D5DCE9" stroke-dasharray="2 2"/>
<circle cx="24" cy="164" r="3.5" stroke="#D5DCE9" stroke-dasharray="2 2"/>
<circle cx="44" cy="164" r="3.5" stroke="#D5DCE9" stroke-dasharray="2 2"/>
<circle cx="64" cy="164" r="3.5" stroke="#D5DCE9" stroke-dasharray="2 2"/>
<circle cx="84" cy="164" r="3.5" stroke="#D5DCE9" stroke-dasharray="2 2"/>
<circle cx="104" cy="164" r="3.5" stroke="#D5DCE9" stroke-dasharray="2 2"/>
<circle cx="124" cy="164" r="3.5" stroke="#D5DCE9" stroke-dasharray="2 2"/>
<circle cx="144" cy="164" r="3.5" stroke="#D5DCE9" stroke-dasharray="2 2"/>
<circle cx="164" cy="164" r="3.5" stroke="#D5DCE9" stroke-dasharray="2 2"/>
<circle cx="184" cy="164" r="3.5" stroke="#D5DCE9" stroke-dasharray="2 2"/>
<circle cx="204" cy="164" r="3.5" stroke="#D5DCE9" stroke-dasharray="2 2"/>
<circle cx="224" cy="164" r="3.5" stroke="#D5DCE9" stroke-dasharray="2 2"/>
<circle cx="244" cy="164" r="3.5" stroke="#D5DCE9" stroke-dasharray="2 2"/>
<circle cx="264" cy="164" r="3.5" stroke="#D5DCE9" stroke-dasharray="2 2"/>
<circle cx="284" cy="164" r="3.5" stroke="#D5DCE9" stroke-dasharray="2 2"/>
<circle cx="304" cy="164" r="3.5" stroke="#D5DCE9" stroke-dasharray="2 2"/>
<circle cx="4" cy="184" r="3.5" stroke="#D5DCE9" stroke-dasharray="2 2"/>
<circle cx="24" cy="184" r="3.5" stroke="#D5DCE9" stroke-dasharray="2 2"/>
<circle cx="44" cy="184" r="3.5" stroke="#D5DCE9" stroke-dasharray="2 2"/>
<circle cx="64" cy="184" r="3.5" stroke="#D5DCE9" stroke-dasharray="2 2"/>
<circle cx="84" cy="184" r="3.5" stroke="#D5DCE9" stroke-dasharray="2 2"/>
<circle cx="104" cy="184" r="3.5" stroke="#D5DCE9" stroke-dasharray="2 2"/>
<circle cx="124" cy="184" r="3.5" stroke="#D5DCE9" stroke-dasharray="2 2"/>
<circle cx="144" cy="184" r="3.5" stroke="#D5DCE9" stroke-dasharray="2 2"/>
<circle cx="164" cy="184" r="3.5" stroke="#D5DCE9" stroke-dasharray="2 2"/>
<circle cx="184" cy="184" r="3.5" stroke="#D5DCE9" stroke-dasharray="2 2"/>
<circle cx="204" cy="184" r="3.5" stroke="#D5DCE9" stroke-dasharray="2 2"/>
<circle cx="224" cy="184" r="3.5" stroke="#D5DCE9" stroke-dasharray="2 2"/>
<circle cx="244" cy="184" r="3.5" stroke="#D5DCE9" stroke-dasharray="2 2"/>
<circle cx="264" cy="184" r="3.5" stroke="#D5DCE9" stroke-dasharray="2 2"/>
<circle cx="284" cy="184" r="3.5" stroke="#D5DCE9" stroke-dasharray="2 2"/>
<circle cx="304" cy="184" r="3.5" stroke="#D5DCE9" stroke-dasharray="2 2"/>
<circle cx="4" cy="204" r="3.5" stroke="#D5DCE9" stroke-dasharray="2 2"/>
<circle cx="24" cy="204" r="3.5" stroke="#D5DCE9" stroke-dasharray="2 2"/>
<circle cx="44" cy="204" r="3.5" stroke="#D5DCE9" stroke-dasharray="2 2"/>
<circle cx="64" cy="204" r="3.5" stroke="#D5DCE9" stroke-dasharray="2 2"/>
<circle cx="84" cy="204" r="3.5" stroke="#D5DCE9" stroke-dasharray="2 2"/>
<circle cx="104" cy="204" r="3.5" stroke="#D5DCE9" stroke-dasharray="2 2"/>
<circle cx="124" cy="204" r="3.5" stroke="#D5DCE9" stroke-dasharray="2 2"/>
<circle cx="144" cy="204" r="3.5" stroke="#D5DCE9" stroke-dasharray="2 2"/>
<circle cx="164" cy="204" r="3.5" stroke="#D5DCE9" stroke-dasharray="2 2"/>
<circle cx="184" cy="204" r="3.5" stroke="#D5DCE9" stroke-dasharray="2 2"/>
<circle cx="204" cy="204" r="3.5" stroke="#D5DCE9" stroke-dasharray="2 2"/>
<circle cx="224" cy="204" r="3.5" stroke="#D5DCE9" stroke-dasharray="2 2"/>
<circle cx="244" cy="204" r="3.5" stroke="#D5DCE9" stroke-dasharray="2 2"/>
<circle cx="264" cy="204" r="3.5" stroke="#D5DCE9" stroke-dasharray="2 2"/>
<circle cx="284" cy="204" r="3.5" stroke="#D5DCE9" stroke-dasharray="2 2"/>
<circle cx="304" cy="204" r="3.5" stroke="#D5DCE9" stroke-dasharray="2 2"/>
<circle cx="4" cy="224" r="3.5" stroke="#D5DCE9" stroke-dasharray="2 2"/>
<circle cx="24" cy="224" r="3.5" stroke="#D5DCE9" stroke-dasharray="2 2"/>
<circle cx="44" cy="224" r="3.5" stroke="#D5DCE9" stroke-dasharray="2 2"/>
<circle cx="64" cy="224" r="3.5" stroke="#D5DCE9" stroke-dasharray="2 2"/>
<circle cx="84" cy="224" r="3.5" stroke="#D5DCE9" stroke-dasharray="2 2"/>
<circle cx="104" cy="224" r="3.5" stroke="#D5DCE9" stroke-dasharray="2 2"/>
<circle cx="124" cy="224" r="3.5" stroke="#D5DCE9" stroke-dasharray="2 2"/>
<circle cx="144" cy="224" r="3.5" stroke="#D5DCE9" stroke-dasharray="2 2"/>
<circle cx="164" cy="224" r="3.5" stroke="#D5DCE9" stroke-dasharray="2 2"/>
<circle cx="184" cy="224" r="3.5" stroke="#D5DCE9" stroke-dasharray="2 2"/>
<circle cx="204" cy="224" r="3.5" stroke="#D5DCE9" stroke-dasharray="2 2"/>
<circle cx="224" cy="224" r="3.5" stroke="#D5DCE9" stroke-dasharray="2 2"/>
<circle cx="244" cy="224" r="3.5" stroke="#D5DCE9" stroke-dasharray="2 2"/>
<circle cx="264" cy="224" r="3.5" stroke="#D5DCE9" stroke-dasharray="2 2"/>
<circle cx="284" cy="224" r="3.5" stroke="#D5DCE9" stroke-dasharray="2 2"/>
<circle cx="304" cy="224" r="3.5" stroke="#D5DCE9" stroke-dasharray="2 2"/>
<circle cx="4" cy="244" r="3.5" stroke="#D5DCE9" stroke-dasharray="2 2"/>
<circle cx="24" cy="244" r="3.5" stroke="#D5DCE9" stroke-dasharray="2 2"/>
<circle cx="44" cy="244" r="3.5" stroke="#D5DCE9" stroke-dasharray="2 2"/>
<circle cx="64" cy="244" r="3.5" stroke="#D5DCE9" stroke-dasharray="2 2"/>
<circle cx="84" cy="244" r="3.5" stroke="#D5DCE9" stroke-dasharray="2 2"/>
<circle cx="104" cy="244" r="3.5" stroke="#D5DCE9" stroke-dasharray="2 2"/>
<circle cx="124" cy="244" r="3.5" stroke="#D5DCE9" stroke-dasharray="2 2"/>
<circle cx="144" cy="244" r="3.5" stroke="#D5DCE9" stroke-dasharray="2 2"/>
<circle cx="164" cy="244" r="3.5" stroke="#D5DCE9" stroke-dasharray="2 2"/>
<circle cx="184" cy="244" r="3.5" stroke="#D5DCE9" stroke-dasharray="2 2"/>
<circle cx="204" cy="244" r="3.5" stroke="#D5DCE9" stroke-dasharray="2 2"/>
<circle cx="224" cy="244" r="3.5" stroke="#D5DCE9" stroke-dasharray="2 2"/>
<circle cx="244" cy="244" r="3.5" stroke="#D5DCE9" stroke-dasharray="2 2"/>
<circle cx="264" cy="244" r="3.5" stroke="#D5DCE9" stroke-dasharray="2 2"/>
<circle cx="284" cy="244" r="3.5" stroke="#D5DCE9" stroke-dasharray="2 2"/>
<circle cx="304" cy="244" r="3.5" stroke="#D5DCE9" stroke-dasharray="2 2"/>
<circle cx="4" cy="264" r="3.5" stroke="#D5DCE9" stroke-dasharray="2 2"/>
<circle cx="24" cy="264" r="3.5" stroke="#D5DCE9" stroke-dasharray="2 2"/>
<circle cx="44" cy="264" r="3.5" stroke="#D5DCE9" stroke-dasharray="2 2"/>
<circle cx="64" cy="264" r="3.5" stroke="#D5DCE9" stroke-dasharray="2 2"/>
<circle cx="84" cy="264" r="3.5" stroke="#D5DCE9" stroke-dasharray="2 2"/>
<circle cx="104" cy="264" r="3.5" stroke="#D5DCE9" stroke-dasharray="2 2"/>
<circle cx="124" cy="264" r="3.5" stroke="#D5DCE9" stroke-dasharray="2 2"/>
<circle cx="144" cy="264" r="3.5" stroke="#D5DCE9" stroke-dasharray="2 2"/>
<circle cx="164" cy="264" r="3.5" stroke="#D5DCE9" stroke-dasharray="2 2"/>
<circle cx="184" cy="264" r="3.5" stroke="#D5DCE9" stroke-dasharray="2 2"/>
<circle cx="204" cy="264" r="3.5" stroke="#D5DCE9" stroke-dasharray="2 2"/>
<circle cx="224" cy="264" r="3.5" stroke="#D5DCE9" stroke-dasharray="2 2"/>
<circle cx="244" cy="264" r="3.5" stroke="#D5DCE9" stroke-dasharray="2 2"/>
<circle cx="264" cy="264" r="3.5" stroke="#D5DCE9" stroke-dasharray="2 2"/>
<circle cx="284" cy="264" r="3.5" stroke="#D5DCE9" stroke-dasharray="2 2"/>
<circle cx="304" cy="264" r="3.5" stroke="#D5DCE9" stroke-dasharray="2 2"/>
<circle cx="4" cy="284" r="3.5" stroke="#D5DCE9" stroke-dasharray="2 2"/>
<circle cx="24" cy="284" r="3.5" stroke="#D5DCE9" stroke-dasharray="2 2"/>
<circle cx="44" cy="284" r="3.5" stroke="#D5DCE9" stroke-dasharray="2 2"/>
<circle cx="64" cy="284" r="3.5" stroke="#D5DCE9" stroke-dasharray="2 2"/>
<circle cx="84" cy="284" r="3.5" stroke="#D5DCE9" stroke-dasharray="2 2"/>
<circle cx="104" cy="284" r="3.5" stroke="#D5DCE9" stroke-dasharray="2 2"/>
<circle cx="124" cy="284" r="3.5" stroke="#D5DCE9" stroke-dasharray="2 2"/>
<circle cx="144" cy="284" r="3.5" stroke="#D5DCE9" stroke-dasharray="2 2"/>
<circle cx="164" cy="284" r="3.5" stroke="#D5DCE9" stroke-dasharray="2 2"/>
<circle cx="184" cy="284" r="3.5" stroke="#D5DCE9" stroke-dasharray="2 2"/>
<circle cx="204" cy="284" r="3.5" stroke="#D5DCE9" stroke-dasharray="2 2"/>
<circle cx="224" cy="284" r="3.5" stroke="#D5DCE9" stroke-dasharray="2 2"/>
<circle cx="244" cy="284" r="3.5" stroke="#D5DCE9" stroke-dasharray="2 2"/>
<circle cx="264" cy="284" r="3.5" stroke="#D5DCE9" stroke-dasharray="2 2"/>
<circle cx="284" cy="284" r="3.5" stroke="#D5DCE9" stroke-dasharray="2 2"/>
<circle cx="304" cy="284" r="3.5" stroke="#D5DCE9" stroke-dasharray="2 2"/>
<circle cx="4" cy="304" r="3.5" stroke="#D5DCE9" stroke-dasharray="2 2"/>
<circle cx="24" cy="304" r="3.5" stroke="#D5DCE9" stroke-dasharray="2 2"/>
<circle cx="44" cy="304" r="3.5" stroke="#D5DCE9" stroke-dasharray="2 2"/>
<circle cx="64" cy="304" r="3.5" stroke="#D5DCE9" stroke-dasharray="2 2"/>
<circle cx="84" cy="304" r="3.5" stroke="#D5DCE9" stroke-dasharray="2 2"/>
<circle cx="104" cy="304" r="3.5" stroke="#D5DCE9" stroke-dasharray="2 2"/>
<circle cx="124" cy="304" r="3.5" stroke="#D5DCE9" stroke-dasharray="2 2"/>
<circle cx="144" cy="304" r="3.5" stroke="#D5DCE9" stroke-dasharray="2 2"/>
<circle cx="164" cy="304" r="3.5" stroke="#D5DCE9" stroke-dasharray="2 2"/>
<circle cx="184" cy="304" r="3.5" stroke="#D5DCE9" stroke-dasharray="2 2"/>
<circle cx="204" cy="304" r="3.5" stroke="#D5DCE9" stroke-dasharray="2 2"/>
<circle cx="224" cy="304" r="3.5" stroke="#D5DCE9" stroke-dasharray="2 2"/>
<circle cx="244" cy="304" r="3.5" stroke="#D5DCE9" stroke-dasharray="2 2"/>
<circle cx="264" cy="304" r="3.5" stroke="#D5DCE9" stroke-dasharray="2 2"/>
<circle cx="284" cy="304" r="3.5" stroke="#D5DCE9" stroke-dasharray="2 2"/>
<circle cx="304" cy="304" r="3.5" stroke="#D5DCE9" stroke-dasharray="2 2"/>
</svg>
