<svg width="5" height="11" viewBox="0 0 5 11" fill="none" xmlns="http://www.w3.org/2000/svg">
<path d="M1.6042 1.76382L1.6042 6.71661C1.6042 7.00185 1.83551 7.23315 2.12075 7.23315C2.40622 7.23315 2.63753 7.00185 2.63753 6.71661L2.63753 1.76382L3.30544 2.43197C3.43528 2.56607 3.62733 2.61999 3.80802 2.57269C3.98848 2.52539 4.12968 2.38443 4.17698 2.20373C4.22429 2.02304 4.17036 1.83099 4.03602 1.70138L2.48616 0.151284C2.28418 -0.0504609 1.95732 -0.0504609 1.75557 0.151284L0.205472 1.70138C0.00963946 1.90407 0.0124776 2.2262 0.211857 2.42558C0.411001 2.62496 0.733367 2.62756 0.936058 2.43197L1.6042 1.76382Z" fill="#009F90"/>
<path d="M2.63754 8.78324C2.63754 8.498 2.40623 8.26669 2.12076 8.26669C1.83553 8.26669 1.60422 8.498 1.60422 8.78324L1.60422 9.81656C1.60422 10.102 1.83553 10.3333 2.12076 10.3333C2.40623 10.3333 2.63754 10.102 2.63754 9.81656L2.63754 8.78324Z" fill="#009F90"/>
</svg>
