<svg width="33" height="31" viewBox="0 0 33 31" fill="none" xmlns="http://www.w3.org/2000/svg">
<path d="M6.17098 5.70973C5.36405 6.51666 5.36388 7.8253 6.17098 8.6324L14.5738 17.0352C15.0156 17.4559 15.387 17.9448 15.6739 18.4831C15.7566 18.6442 15.7499 18.8368 15.656 18.992C15.5687 19.1389 15.412 19.2304 15.2409 19.2345C14.6835 19.2477 14.1262 19.1976 13.5802 19.0847C11.9533 18.7592 8.55381 18.6711 7.57211 19.6528C6.99948 20.202 6.80047 21.0352 7.0632 21.7839C7.34567 22.4052 7.98787 22.7825 8.66803 22.7268C10.0016 22.7268 13.9871 23.71 16.5646 24.8151C18.2605 25.5415 20.5124 25.6664 22.1032 25.643C22.7919 25.639 23.4535 25.9119 23.939 26.4004L24.0726 26.534C24.678 27.1394 25.6594 27.1394 26.2648 26.534L32.1101 20.6887C32.7155 20.0833 32.7155 19.1019 32.1101 18.4965L30.9878 17.3742C30.8915 17.2849 30.8366 17.1594 30.8366 17.028C30.952 14.4465 28.909 12.3727 28.822 12.2857L23.0384 6.50211C22.2698 5.70638 21.0188 5.63447 20.1644 6.33737C19.8527 6.61131 19.6302 6.97222 19.526 7.37376L18.9579 6.80564C18.1508 5.99855 16.8424 5.99855 16.0353 6.80564C15.7732 7.07038 15.5882 7.40185 15.5008 7.76393C14.9612 7.31773 14.2307 7.17926 13.5653 7.3965C12.8997 7.61391 12.3918 8.15694 12.2197 8.83543L9.09382 5.70956C8.28672 4.90246 6.97808 4.90263 6.17098 5.70973ZM13.478 8.6324C13.8815 8.22885 14.5358 8.22885 14.9393 8.6324L18.2273 11.9203C18.4291 12.1222 18.7562 12.1222 18.9579 11.9205C19.1598 11.7186 19.1598 11.3915 18.9579 11.1897L16.7659 8.99765C16.3624 8.5941 16.3624 7.93986 16.7659 7.53631C17.1695 7.13276 17.8237 7.13276 18.2273 7.53631L20.7847 10.0937C20.9864 10.2954 21.3135 10.2954 21.5152 10.0937C21.717 9.89188 21.717 9.56476 21.5154 9.36307L20.7847 8.6324C20.5807 8.42937 20.4704 8.15058 20.4806 7.86276C20.4908 7.57528 20.6208 7.30485 20.8387 7.11704C21.2857 6.7737 21.9201 6.82371 22.3077 7.23277L28.0914 13.0164C28.1093 13.0343 29.8996 14.8617 29.8046 16.9823C29.7917 17.4033 29.9558 17.8105 30.2571 18.1048L31.3795 19.2272C31.5813 19.429 31.5813 19.7562 31.3795 19.958L25.5341 25.8034C25.3323 26.0052 25.0051 26.0052 24.8033 25.8034L24.6697 25.6697C23.9853 24.9844 23.0541 24.6031 22.0856 24.6119C20.8658 24.63 18.5786 24.5568 16.9695 23.8667C14.4604 22.7919 10.2692 21.6966 8.66586 21.6958C8.31817 21.696 8.09925 21.5931 8.0153 21.3908C7.9178 21.0287 8.02767 20.6425 8.30061 20.3856C8.80734 19.8789 11.5128 19.7252 13.3767 20.0993C14 20.2273 14.636 20.284 15.272 20.2681C15.7951 20.2534 16.2741 19.9724 16.5423 19.5232C16.8166 19.0663 16.8383 18.501 16.6 18.0246C16.2635 17.3854 15.826 16.8044 15.3044 16.3045L6.90165 7.90173C6.4981 7.49818 6.4981 6.84394 6.90165 6.44039C7.3052 6.03685 7.9596 6.03668 8.36315 6.44023L16.0353 14.1123C16.2371 14.3142 16.5642 14.3142 16.7659 14.1125C16.9678 13.9106 16.9678 13.5835 16.7659 13.3817L13.478 10.0937C13.0745 9.69019 13.0744 9.03595 13.478 8.6324Z" fill="white"/>
<path d="M26.6302 13.7471C26.8319 13.5454 26.8319 13.2183 26.63 13.0165L24.438 10.8245C24.2363 10.6228 23.9092 10.6228 23.7075 10.8245C23.5056 11.0263 23.5056 11.3534 23.7073 11.5551L25.8993 13.7471C26.1012 13.949 26.4283 13.949 26.6302 13.7471Z" fill="white"/>
<path d="M28.4568 16.3045C28.5536 16.2077 28.6081 16.0762 28.608 15.9393C28.6289 15.4039 28.4439 14.8811 28.0914 14.4778C27.8939 14.2809 27.5748 14.2792 27.3751 14.4739C27.1801 14.6733 27.1702 14.9888 27.3523 15.2001C27.5104 15.413 27.5892 15.6744 27.5749 15.9391C27.5749 16.1481 27.7007 16.3365 27.8937 16.4164C28.0869 16.4965 28.3091 16.4522 28.4568 16.3045Z" fill="white"/>
<path d="M25.1689 23.246L24.8034 23.6114C24.6017 23.8131 24.6016 24.1404 24.8033 24.3421C25.0051 24.5439 25.3324 24.5438 25.5341 24.3421L25.8995 23.9766C26.1012 23.775 26.1012 23.4478 25.8994 23.246C25.6977 23.0443 25.3705 23.0443 25.1689 23.246Z" fill="white"/>
<path d="M27.3609 22.5153L29.9181 19.9581C30.12 19.7562 30.12 19.4291 29.9181 19.2272C29.7164 19.0255 29.3893 19.0255 29.1874 19.2274L26.6302 21.7846C26.4283 21.9865 26.4283 22.3136 26.63 22.5153C26.8319 22.7172 27.159 22.7172 27.3609 22.5153Z" fill="white"/>
</svg>
