<svg width="30" height="30" viewBox="0 0 30 30" fill="none" xmlns="http://www.w3.org/2000/svg">
<path d="M5.31564 0C2.37096 0 0 2.37096 0 5.31564V24.6844C0 27.6291 2.37096 30 5.31564 30H19.5713L30 15.0038L19.5713 3e-05H5.31564V0ZM13.2985 5.47689H16.6856C16.8936 5.47689 17.0128 5.55294 17.0128 5.73189V24.3994C17.0128 24.5264 16.953 24.6028 16.7747 24.6028H14.9325C14.8145 24.6028 14.7253 24.5009 14.7253 24.4247V17.5134H13.2384L9.10875 24.4247C9.04947 24.5518 8.93079 24.6028 8.7525 24.6028H6.64311C6.40611 24.6028 6.25749 24.4247 6.40593 24.195L10.9509 17.1562C8.51532 16.2382 7.14843 14.3766 7.14843 11.8519C7.14843 7.64394 9.97116 5.47686 13.2984 5.47686L13.2985 5.47689ZM13.2094 7.10814C11.397 7.10814 9.61407 8.4087 9.61407 11.5969C9.61407 14.6572 11.5157 15.8813 13.4766 15.8813H14.7253V7.10814H13.2094Z" fill="white"/>
</svg>
