<svg width="21" height="21" viewBox="0 0 21 21" fill="none" xmlns="http://www.w3.org/2000/svg">
<path d="M1.5 21C2.32843 21 3 20.3284 3 19.5C3 18.6716 2.32843 18 1.5 18C0.671573 18 0 18.6716 0 19.5C0 20.3284 0.671573 21 1.5 21Z" fill="#009F90"/>
<path d="M4.5 18C5.32843 18 6 17.3284 6 16.5C6 15.6716 5.32843 15 4.5 15C3.67157 15 3 15.6716 3 16.5C3 17.3284 3.67157 18 4.5 18Z" fill="#009F90"/>
<path d="M7.5 15C8.32843 15 9 14.3284 9 13.5C9 12.6716 8.32843 12 7.5 12C6.67157 12 6 12.6716 6 13.5C6 14.3284 6.67157 15 7.5 15Z" fill="#009F90"/>
<path d="M10.5 12C11.3284 12 12 11.3284 12 10.5C12 9.67157 11.3284 9 10.5 9C9.67157 9 9 9.67157 9 10.5C9 11.3284 9.67157 12 10.5 12Z" fill="#009F90"/>
<path d="M13.5 9C14.3284 9 15 8.32843 15 7.5C15 6.67157 14.3284 6 13.5 6C12.6716 6 12 6.67157 12 7.5C12 8.32843 12.6716 9 13.5 9Z" fill="#009F90"/>
<path d="M16.5 6C17.3284 6 18 5.32843 18 4.5C18 3.67157 17.3284 3 16.5 3C15.6716 3 15 3.67157 15 4.5C15 5.32843 15.6716 6 16.5 6Z" fill="#009F90"/>
<path d="M19.5 3C20.3284 3 21 2.32843 21 1.5C21 0.671573 20.3284 0 19.5 0C18.6716 0 18 0.671573 18 1.5C18 2.32843 18.6716 3 19.5 3Z" fill="#009F90"/>
</svg>
