<svg width="33" height="27" viewBox="0 0 33 27" fill="none" xmlns="http://www.w3.org/2000/svg">
<path d="M32.5782 3.11142C31.3801 3.63721 30.0931 3.99247 28.7401 4.15305C30.1362 3.3257 31.1806 2.02356 31.6786 0.489579C30.367 1.2612 28.9315 1.80433 27.4345 2.09537C26.4278 1.03081 25.0944 0.3252 23.6414 0.0880945C22.1883 -0.149011 20.6969 0.0956509 19.3986 0.784096C18.1003 1.47254 17.0679 2.56625 16.4615 3.89542C15.8551 5.22459 15.7088 6.71485 16.0452 8.13484C13.3875 8.00268 10.7876 7.31852 8.41417 6.12676C6.04075 4.935 3.94686 3.26228 2.26839 1.21716C1.69448 2.19768 1.36448 3.33453 1.36448 4.54526C1.36384 5.6352 1.63484 6.70845 2.15343 7.66978C2.67203 8.6311 3.42219 9.45079 4.33735 10.0561C3.27601 10.0227 2.23808 9.73862 1.30996 9.22763V9.31289C1.30985 10.8416 1.84374 12.3232 2.82105 13.5064C3.79835 14.6896 5.15886 15.5015 6.67174 15.8043C5.68717 16.0682 4.65492 16.107 3.65296 15.9179C4.0798 17.2333 4.91125 18.3835 6.03092 19.2076C7.15058 20.0316 8.5024 20.4883 9.89713 20.5136C7.5295 22.3545 4.60549 23.353 1.59548 23.3486C1.06229 23.3488 0.529544 23.3179 0 23.2563C3.05534 25.2019 6.61197 26.2345 10.2443 26.2305C22.5404 26.2305 29.2624 16.1439 29.2624 7.39589C29.2624 7.11168 29.2552 6.82463 29.2423 6.54042C30.5498 5.60391 31.6784 4.44422 32.5753 3.11568L32.5782 3.11142Z" fill="white"/>
</svg>
