<svg width="76" height="76" viewBox="0 0 76 76" fill="none" xmlns="http://www.w3.org/2000/svg">
<path d="M69.6665 0H6.33337C2.83723 0.00415625 0.00415624 2.83723 0 6.33338V69.6668C0.00415624 73.1628 2.83723 75.9958 6.33337 76H69.6666C73.1626 75.9958 75.9957 73.1628 76 69.6666V6.33338C75.9957 2.83723 73.1626 0.00415625 69.6665 0ZM73.4665 69.6666C73.4665 71.7652 71.7652 73.4666 69.6665 73.4666H6.33337C4.23477 73.4666 2.53338 71.7654 2.53338 69.6666V12.6666H73.4666L73.4665 69.6666ZM73.4665 10.1334H2.53338V6.33338C2.53338 4.23477 4.23477 2.53338 6.33337 2.53338H69.6666C71.7652 2.53338 73.4666 4.23477 73.4666 6.33338L73.4665 10.1334Z" fill="#009F90"/>
<path d="M8.8666 5.06665H7.59999C6.9004 5.06665 6.33337 5.63368 6.33337 6.33326C6.33337 7.03285 6.9004 7.60003 7.59999 7.60003H8.8666C9.56618 7.60003 10.1332 7.033 10.1332 6.33341C10.1332 5.63383 9.56618 5.06665 8.8666 5.06665Z" fill="#009F90"/>
<path d="M14.4146 5.16801C14.1088 5.02863 13.7576 5.02863 13.452 5.16801C13.2985 5.23228 13.1572 5.32224 13.034 5.43401C12.5441 5.9335 12.5441 6.73313 13.034 7.23263C13.1572 7.3444 13.2985 7.43435 13.452 7.49863C13.7586 7.63371 14.1079 7.63371 14.4146 7.49863C14.5681 7.43435 14.7094 7.3444 14.8326 7.23263C15.3224 6.73313 15.3224 5.9335 14.8326 5.43401C14.7094 5.32224 14.5681 5.23228 14.4146 5.16801Z" fill="#009F90"/>
<path d="M19.4857 5.15612C19.0104 4.95884 18.4629 5.06854 18.1006 5.43399C17.9888 5.55719 17.8989 5.69851 17.8346 5.85199C17.6994 6.15866 17.6994 6.50794 17.8346 6.81461C17.8989 6.96809 17.9888 7.1094 18.1006 7.23261C18.6001 7.72245 19.3997 7.72245 19.8992 7.23261C20.011 7.1094 20.1009 6.96809 20.1652 6.81461C20.2362 6.66424 20.2709 6.49947 20.2666 6.33322C20.2697 5.81874 19.9609 5.35339 19.4857 5.15612Z" fill="#009F90"/>
<path d="M68.3999 5.06665H25.3333C24.6338 5.06665 24.0667 5.63368 24.0667 6.33326C24.0667 7.03285 24.6338 7.59988 25.3333 7.59988H68.3999C69.0994 7.59988 69.6665 7.03285 69.6665 6.33326C69.6665 5.63368 69.0994 5.06665 68.3999 5.06665Z" fill="#009F90"/>
<path d="M19.4471 60.3186C19.5047 60.3716 19.5674 60.4188 19.6345 60.4592C24.4025 65.5283 31.0534 68.4021 38.0125 68.3999C44.9717 68.3976 51.6207 65.5199 56.3855 60.4478C56.4484 60.4111 56.5078 60.3686 56.5629 60.3211C56.6045 60.2628 56.641 60.2009 56.6718 60.1362C65.5606 50.4941 65.5606 35.6441 56.6718 26.0021L56.6668 25.9996C56.6359 25.9349 56.5994 25.873 56.5578 25.8146C56.5001 25.7609 56.4369 25.7134 56.3692 25.6727C51.6033 20.6077 44.9573 17.7358 38.0026 17.7358C31.0479 17.7358 24.4019 20.6077 19.636 25.6727C19.5683 25.7132 19.5051 25.7609 19.4474 25.8146C19.4058 25.873 19.3693 25.9349 19.3384 25.9996C10.4497 35.6416 10.4497 50.4916 19.3384 60.1337C19.3691 60.1984 19.4055 60.2603 19.4471 60.3186ZM44.9095 64.7861C46.8566 62.4347 48.3221 59.7232 49.2225 56.8061V56.8023C50.8138 57.5477 52.3151 58.4715 53.6976 59.5559C51.2021 61.9424 48.1971 63.7308 44.9095 64.7861ZM55.4458 57.7156C53.7601 56.3634 51.9104 55.2291 49.9408 54.34C50.7554 51.0644 51.2003 47.708 51.2669 44.3334H60.7353C60.472 49.2501 58.6152 53.9475 55.4458 57.7156ZM60.7353 41.8H51.2669C51.2001 38.4254 50.7553 35.0688 49.9408 31.7934C51.9103 30.905 53.76 29.7717 55.4458 28.4203C58.6147 32.1876 60.4714 36.884 60.7353 41.8ZM53.6978 26.5734C52.3152 27.6579 50.8139 28.5818 49.2227 29.3271C48.3227 26.4087 46.8572 23.6958 44.9097 21.3432C48.1971 22.3988 51.2021 24.1871 53.6978 26.5734ZM39.2665 20.444C42.3711 21.2571 45.1172 24.99 46.8475 30.2746C44.4031 31.1174 41.8498 31.6032 39.2665 31.7172V20.444ZM39.2665 34.252C42.0849 34.1464 44.8735 33.6346 47.5455 32.732C48.2641 35.7035 48.6628 38.7435 48.7349 41.8H39.2665V34.252ZM39.2665 44.3334H48.7349C48.6626 47.389 48.2639 50.4281 47.5455 53.3989C44.8733 52.4971 42.0849 51.9861 39.2665 51.8814V44.3334ZM39.2665 54.416C41.8498 54.5304 44.4031 55.0167 46.8475 55.86C45.1172 61.1445 42.3711 64.8774 39.2665 65.6906V54.416ZM22.3021 59.5524C23.6851 58.4706 25.1864 57.5492 26.7772 56.8063V56.8024C27.6776 59.7195 29.1431 62.431 31.0902 64.7824C27.8027 63.727 24.7978 61.9387 22.3021 59.5524ZM36.7333 65.6894C33.6287 64.8762 30.8827 61.1433 29.1523 55.8588C31.5968 55.016 34.1501 54.5301 36.7333 54.4161V65.6894ZM36.7333 51.8814C33.9149 51.987 31.1265 52.4988 28.4544 53.4014C27.7358 50.4297 27.3371 47.3899 27.2649 44.3334H36.7333V51.8814ZM36.7333 41.8H27.2649C27.3372 38.7444 27.7359 35.7053 28.4544 32.7345C31.1265 33.6362 33.9149 34.1473 36.7333 34.252V41.8ZM36.7333 20.4427V31.7172C34.1501 31.6028 31.5968 31.1165 29.1523 30.2732C30.8825 24.9889 33.6286 21.256 36.7333 20.4427ZM31.0903 21.3395C29.1424 23.6931 27.6769 26.4073 26.7773 29.3271V29.3232C25.1861 28.5778 23.6848 27.6541 22.3022 26.5694C24.7978 24.1833 27.8027 22.3949 31.0903 21.3395ZM20.5541 28.4176C22.2398 29.7699 24.0894 30.9041 26.059 31.7932C25.2444 35.0688 24.7996 38.4253 24.7329 41.7999H15.2645C15.5279 36.8832 17.3847 32.1857 20.5541 28.4176ZM24.7329 44.3334C24.7997 47.708 25.2446 51.0646 26.059 54.34C24.0896 55.2284 22.2399 56.3617 20.5541 57.7131C17.3851 53.9457 15.5285 49.2492 15.2645 44.3332H24.7329V44.3334Z" fill="#009F90"/>
</svg>
