<svg width="945" height="720" viewBox="0 0 945 720" fill="none" xmlns="http://www.w3.org/2000/svg">
<path d="M861.93 488.7C857.97 489.645 852.593 494.527 851.04 498.983L843.165 517.973C841.388 521.617 841.725 528.84 843.84 532.305L875.273 583.695C882 594.72 880.605 610.335 871.56 620.46L844.943 647.055C835.673 655.29 819.315 656.775 808.65 650.318L757.26 618.885C754.043 616.905 747.135 616.208 742.298 618.48L723.33 626.31C719.505 627.638 714.623 632.992 713.678 636.953L699.57 695.542C696.578 707.963 684.72 718.177 671.985 719.348C671.985 719.348 664.178 720.067 652.478 720.067C640.778 720.067 632.97 719.348 632.948 719.348C626.501 718.587 620.43 715.913 615.517 711.67C610.605 707.427 607.076 701.81 605.385 695.542L591.255 636.953C590.31 633.015 585.45 627.638 580.995 626.085L562.005 618.21C558.653 616.568 550.89 616.905 547.673 618.885L496.283 650.318C491.76 653.085 486.36 654.547 480.623 654.547C472.86 654.547 465.345 651.825 459.518 646.628L432.923 620.01C428.706 615.034 426.13 608.876 425.546 602.38C424.962 595.884 426.399 589.366 429.66 583.718L461.093 532.328C463.208 528.863 463.545 521.64 461.498 517.365L453.668 498.397C452.34 494.572 446.985 489.69 443.025 488.745L384.435 474.637C378.167 472.94 372.551 469.406 368.309 464.49C364.066 459.574 361.392 453.501 360.63 447.052C360.63 447.052 359.91 439.245 359.91 427.545C359.91 415.845 360.63 408.038 360.63 408.015C361.395 401.568 364.07 395.496 368.312 390.581C372.554 385.665 378.169 382.13 384.435 380.43L443.003 366.345C446.963 365.4 452.34 360.518 453.893 356.062L461.768 337.072C463.545 333.428 463.208 326.205 461.093 322.74L429.66 271.35C422.933 260.325 424.328 244.71 433.373 234.585L459.99 207.99C469.283 199.733 485.663 198.248 496.283 204.728L547.673 236.16C550.89 238.118 557.82 238.86 562.635 236.565L581.603 228.735C585.428 227.408 590.288 222.052 591.233 218.092L605.363 159.503C607.06 153.235 610.594 147.619 615.51 143.376C620.426 139.134 626.499 136.46 632.948 135.698C632.993 135.72 640.8 135 652.5 135C664.2 135 672.008 135.72 672.03 135.72C678.478 136.485 684.549 139.16 689.464 143.402C694.38 147.644 697.915 153.259 699.615 159.525L713.7 218.07C714.645 222.03 719.528 227.407 723.983 228.96L742.973 236.835C746.348 238.478 754.088 238.118 757.305 236.16L808.673 204.728C819.315 198.248 835.335 199.372 845.438 208.417L872.033 235.035C876.249 240.011 878.825 246.169 879.409 252.665C879.993 259.161 878.556 265.679 875.295 271.327L843.863 322.718C841.748 326.183 841.41 333.405 843.458 337.68L851.288 356.647C852.615 360.473 857.97 365.355 861.93 366.3L920.52 380.407C926.788 382.105 932.404 385.639 936.646 390.555C940.889 395.471 943.563 401.544 944.325 407.992C944.28 407.992 945 415.8 945 427.5C945 439.2 944.28 447.008 944.28 447.03C943.515 453.477 940.84 459.549 936.598 464.464C932.356 469.38 926.741 472.915 920.475 474.615L861.93 488.7ZM922.5 427.5C922.5 417.195 921.893 410.242 921.87 410.017C921.512 408.267 920.711 406.637 919.546 405.282C918.38 403.927 916.888 402.893 915.21 402.277L856.62 388.17C845.258 385.425 833.805 375.03 830.25 364.613L822.96 346.905C817.83 336.398 818.55 320.963 824.648 310.973L856.08 259.605C857.588 257.108 857.16 252.158 855.675 250.47L830.003 224.775C827.955 222.952 822.735 222.502 820.395 223.92L769.005 255.353C759.263 261.315 742.568 261.72 733.725 257.333L715.995 249.997C704.948 246.195 694.553 234.743 691.808 223.357L677.723 164.79C677.112 163.107 676.08 161.609 674.725 160.439C673.369 159.269 671.737 158.466 669.983 158.107C669.758 158.107 662.805 157.5 652.5 157.5C642.195 157.5 635.243 158.107 635.018 158.13C633.267 158.488 631.637 159.289 630.282 160.454C628.927 161.62 627.893 163.112 627.278 164.79L613.17 223.357C610.425 234.72 600.053 246.195 589.613 249.75L571.905 257.04C561.623 262.08 545.693 261.292 535.973 255.353L484.605 223.92C482.265 222.502 476.73 223.245 475.47 224.325L449.775 249.997C447.84 252.18 447.413 257.108 448.92 259.605L480.353 310.995C486.45 320.962 487.17 336.42 482.333 346.275L474.998 364.005C471.195 375.052 459.743 385.448 448.358 388.193L389.79 402.277C388.107 402.888 386.609 403.92 385.439 405.275C384.269 406.631 383.466 408.263 383.108 410.017C383.108 410.242 382.5 417.195 382.5 427.5C382.5 437.805 383.108 444.758 383.13 444.983C383.489 446.733 384.289 448.363 385.454 449.718C386.62 451.073 388.112 452.107 389.79 452.723L448.38 466.83C459.743 469.575 471.195 479.97 474.75 490.388L482.04 508.095C487.17 518.603 486.45 534.038 480.353 544.028L448.92 595.395C447.413 597.892 447.84 602.842 449.325 604.53L474.998 630.225C476.624 631.441 478.615 632.067 480.645 632.003C482.016 632.047 483.374 631.729 484.583 631.08L535.973 599.647C545.693 593.707 562.388 593.28 571.253 597.667L588.983 605.003C600.03 608.805 610.425 620.28 613.148 631.642L627.255 690.21C627.866 691.893 628.898 693.391 630.253 694.561C631.608 695.731 633.241 696.534 634.995 696.893C635.243 696.893 642.195 697.5 652.5 697.5C662.805 697.5 669.758 696.893 669.983 696.87C671.733 696.512 673.363 695.711 674.718 694.546C676.073 693.38 677.107 691.888 677.723 690.21L691.83 631.62C694.575 620.258 704.97 608.805 715.388 605.25L733.095 597.96C738.13 595.619 743.63 594.45 749.183 594.54C756.585 594.54 763.628 596.363 769.028 599.67L820.395 631.103C822.735 632.52 828.293 631.755 829.53 630.698L855.225 605.003C857.16 602.82 857.588 597.892 856.08 595.395L824.648 544.005C818.55 534.037 817.83 518.58 822.668 508.725L830.003 490.995C833.805 479.948 845.258 469.552 856.643 466.807L915.21 452.723C916.893 452.112 918.391 451.08 919.561 449.725C920.731 448.369 921.534 446.737 921.893 444.983C921.893 444.758 922.5 437.805 922.5 427.5Z" fill="url(#paint0_linear)"/>
<path d="M652.5 551.25C584.258 551.25 528.75 495.742 528.75 427.5C528.75 359.257 584.258 303.75 652.5 303.75C720.743 303.75 776.25 359.257 776.25 427.5C776.25 495.742 720.743 551.25 652.5 551.25ZM652.5 326.25C596.678 326.25 551.25 371.677 551.25 427.5C551.25 483.322 596.678 528.75 652.5 528.75C708.323 528.75 753.75 483.322 753.75 427.5C753.75 371.677 708.323 326.25 652.5 326.25Z" fill="url(#paint1_linear)"/>
<path d="M326.768 119.564C328.279 121.259 330.345 122.36 332.595 122.669L374.468 122.264C379.635 122.401 384.646 124.069 388.864 127.057C393.082 130.046 396.317 134.219 398.16 139.049C398.16 139.049 400.005 144.291 402.03 152.324C404.055 160.356 404.91 165.846 404.91 165.846C406.485 175.994 400.838 187.221 391.77 191.969L354.848 211.319C352.869 212.818 351.534 215.014 351.113 217.461L349.02 231.749C348.887 234.006 349.557 236.237 350.91 238.049L380.655 267.209C388.103 274.499 390.06 286.964 384.93 296.751L371.453 319.251C365.76 327.621 353.43 331.896 343.755 328.881L302.715 316.326C300.488 316.326 298.26 317.181 297 318.194L285.413 326.744C283.726 328.262 282.627 330.325 282.308 332.571L282.713 374.241C282.803 384.501 275.603 394.784 265.928 398.159C265.928 398.159 260.685 400.004 252.653 402.029C244.62 404.054 239.13 404.909 239.13 404.909C238.545 404.999 236.205 405.179 235.62 405.179C231.007 405.121 226.489 403.852 222.52 401.499C218.551 399.145 215.271 395.79 213.008 391.769L193.658 354.846C192.158 352.867 189.962 351.532 187.515 351.111L172.598 348.951C170.348 348.951 167.693 350.121 166.95 350.886L137.79 380.631C130.703 387.876 118.755 390.464 108.248 384.906L85.7703 371.429C77.1753 365.579 73.0127 353.654 76.1177 343.731L88.5378 303.974C88.8698 301.503 88.2416 298.998 86.7827 296.976L78.2328 285.389C76.7218 283.693 74.6554 282.592 72.4052 282.284L30.5327 282.689C25.3653 282.552 20.3549 280.883 16.137 277.895C11.9189 274.907 8.68335 270.733 6.84027 265.904C6.84027 265.904 4.99527 260.661 2.97028 252.629C0.945251 244.596 0.0903015 239.106 0.0903015 239.106C-0.577728 233.938 0.316772 228.688 2.6586 224.032C5.00046 219.376 8.6824 215.528 13.2303 212.984L50.1527 193.634C52.1318 192.134 53.467 189.938 53.8878 187.491L55.9577 173.249C56.0905 170.992 55.4211 168.76 54.0677 166.949L24.3228 137.789C16.8753 130.499 14.9178 118.034 20.0477 108.246L33.5253 85.7462C39.2178 77.3987 51.5253 73.0787 61.2228 76.0937L102.285 88.6487C104.34 88.6458 106.34 87.9921 108 86.7812L119.588 78.2312C121.274 76.7129 122.373 74.6502 122.693 72.4037L122.288 30.7337C122.375 25.5261 124.02 20.4639 127.012 16.2006C130.004 11.9373 134.205 8.66857 139.073 6.81622C139.073 6.81622 144.315 4.97123 152.348 2.94623C160.38 0.921225 165.87 0.0662256 165.87 0.0662256C167.038 -0.0498374 168.208 -0.132371 169.38 -0.181274C173.994 -0.123805 178.512 1.14532 182.48 3.4989C186.449 5.85249 189.729 9.20785 191.993 13.2287L211.343 50.1512C212.842 52.1303 215.038 53.4655 217.485 53.8862L232.403 56.0237C234.44 55.9796 236.414 55.3034 238.05 54.0887L267.21 24.3437C271.022 20.5516 275.953 18.088 281.274 17.318C286.595 16.548 292.023 17.5126 296.753 20.0687L319.253 33.5237C327.848 39.3737 332.01 51.2987 328.905 61.2212L316.485 100.979C316.153 103.45 316.781 105.954 318.24 107.976L326.768 119.564ZM308.318 132.434L300.6 121.949C294.57 114.816 292.23 103.184 295.02 94.2962L307.418 54.5612C307.53 53.9312 307.035 52.5137 307.148 52.4912L285.818 39.7112L283.275 40.0937L254.093 69.8387C248.918 75.1037 240.39 78.5237 232.38 78.5237C230.839 78.548 229.3 78.4046 227.79 78.0962L214.853 76.1837C209.993 75.5942 205.34 73.8748 201.265 71.1632C197.189 68.4516 193.806 64.8232 191.385 60.5687L172.058 23.6687C171.362 22.8884 170.398 22.3984 169.358 22.2962C169.11 22.3187 164.52 23.0837 157.815 24.7487C151.133 26.4362 146.723 27.9437 146.52 28.0337C145.823 28.3262 144.81 29.7887 144.765 30.5087L145.17 72.1787C145.26 81.4937 139.658 91.9562 132.413 96.6812L121.95 104.399C114.998 110.271 103.073 112.746 94.2978 109.979L54.3828 97.5587C53.4377 97.5587 52.3802 98.1437 52.5152 97.8512L39.7352 119.181C39.4877 119.766 39.7353 121.251 40.1178 121.724L69.8627 150.906C76.5002 157.454 79.9427 168.794 78.1202 177.209L76.2303 190.146C75.4203 199.416 68.8503 209.294 60.5928 213.614L23.6928 232.941C22.9194 233.642 22.4309 234.603 22.3203 235.641C22.9799 239.521 23.7981 243.371 24.7728 247.184C25.7057 250.994 26.8018 254.762 28.0578 258.479C28.3503 259.176 29.8127 260.189 30.5327 260.234L72.4278 259.829C81.6753 259.829 92.0253 265.431 96.7053 272.586L104.4 283.049C107.438 286.895 109.526 291.403 110.496 296.208C111.465 301.012 111.289 305.978 109.98 310.701L97.5828 350.436C97.4703 351.044 97.9652 352.484 97.8527 352.506L119.183 365.286L121.725 364.904L150.908 335.159C156.083 329.894 164.61 326.474 172.62 326.474C174.161 326.449 175.7 326.593 177.21 326.901L190.148 328.814C195.007 329.403 199.661 331.123 203.736 333.834C207.811 336.546 211.195 340.174 213.615 344.429L232.943 381.329C233.638 382.109 234.602 382.599 235.643 382.701C239.522 382.042 243.373 381.223 247.185 380.249C250.996 379.316 254.764 378.22 258.48 376.964C259.178 376.671 260.19 375.209 260.235 374.489L259.83 332.819C259.74 323.504 265.343 313.041 272.588 308.316L283.05 300.599C286.9 297.559 291.412 295.47 296.221 294.5C301.029 293.531 305.998 293.708 310.725 295.019L350.64 307.439C351.608 307.439 352.665 306.921 352.508 307.146L365.288 285.816C365.535 285.231 365.288 283.746 364.905 283.274L335.16 254.091C328.523 247.544 325.08 236.204 326.903 227.789L328.793 214.874C329.383 210.012 331.105 205.356 333.821 201.28C336.537 197.205 340.17 193.823 344.43 191.406L381.33 172.079C382.104 171.378 382.592 170.417 382.703 169.379C382.68 169.131 381.915 164.541 380.25 157.836C378.563 151.154 377.055 146.744 376.965 146.541C376.673 145.844 375.21 144.831 374.49 144.786L332.595 145.191C323.348 145.191 312.998 139.589 308.318 132.434Z" fill="url(#paint2_linear)"/>
<path d="M202.5 270C165.285 270 135 239.715 135 202.5C135 165.285 165.285 135 202.5 135C239.715 135 270 165.285 270 202.5C270 239.715 239.715 270 202.5 270ZM202.5 157.5C177.682 157.5 157.5 177.682 157.5 202.5C157.5 227.317 177.682 247.5 202.5 247.5C227.317 247.5 247.5 227.317 247.5 202.5C247.5 177.682 227.317 157.5 202.5 157.5Z" fill="url(#paint3_linear)"/>
<defs>
<linearGradient id="paint0_linear" x1="652.455" y1="135" x2="652.455" y2="720.067" gradientUnits="userSpaceOnUse">
<stop/>
<stop offset="1" stop-color="white" stop-opacity="0"/>
</linearGradient>
<linearGradient id="paint1_linear" x1="652.5" y1="303.75" x2="652.5" y2="551.25" gradientUnits="userSpaceOnUse">
<stop/>
<stop offset="1" stop-color="white" stop-opacity="0"/>
</linearGradient>
<linearGradient id="paint2_linear" x1="202.524" y1="-0.181274" x2="202.524" y2="405.179" gradientUnits="userSpaceOnUse">
<stop/>
<stop offset="1" stop-color="white" stop-opacity="0"/>
</linearGradient>
<linearGradient id="paint3_linear" x1="202.5" y1="135" x2="202.5" y2="270" gradientUnits="userSpaceOnUse">
<stop/>
<stop offset="1" stop-color="white" stop-opacity="0"/>
</linearGradient>
</defs>
</svg>
