<svg width="78" height="76" viewBox="0 0 78 76" fill="none" xmlns="http://www.w3.org/2000/svg">
<path d="M70.9032 8.60368H37.1339C36.03 6.04662 34.2116 3.87056 31.9016 2.3423C29.5915 0.814035 26.8903 0 24.129 0C21.3678 0 18.6665 0.814035 16.3565 2.3423C14.0465 3.87056 12.228 6.04662 11.1242 8.60368H7.09677C5.21517 8.60558 3.41117 9.36158 2.08067 10.7058C0.750176 12.05 0.00187879 13.8725 0 15.7735V55.9245C0.00187879 57.8255 0.750176 59.648 2.08067 60.9922C3.41117 62.3364 5.21517 63.0924 7.09677 63.0943H34.8948L32.8847 68.8302H26.9677C26.5913 68.8302 26.2303 68.9813 25.9641 69.2502C25.6979 69.5191 25.5484 69.8838 25.5484 70.2641V74.566C25.5484 74.9464 25.6979 75.3111 25.9641 75.58C26.2303 75.8489 26.5913 76 26.9677 76H51.0323C51.4087 76 51.7697 75.8489 52.0359 75.58C52.3021 75.3111 52.4516 74.9464 52.4516 74.566V70.2641C52.4516 69.8838 52.3021 69.5191 52.0359 69.2502C51.7697 68.9813 51.4087 68.8302 51.0323 68.8302H44.9379L42.9277 63.0943H70.9032C72.7848 63.0924 74.5888 62.3364 75.9193 60.9922C77.2498 59.648 77.9981 57.8255 78 55.9245V15.7735C77.9981 13.8725 77.2498 12.05 75.9193 10.7058C74.5888 9.36158 72.7848 8.60558 70.9032 8.60368ZM35.4839 14.3395C35.4858 17.248 34.3893 20.0476 32.4181 22.1672C32.3876 22.1177 32.3538 22.0704 32.3169 22.0256L25.921 14.2714L31.8273 5.91679C32.9803 6.98877 33.9007 8.29084 34.5301 9.74063C35.1595 11.1904 35.4843 12.7564 35.4839 14.3395ZM24.129 2.86782C26.0119 2.86591 27.8654 3.33975 29.5208 4.24622L23.3981 12.9056H12.8665C13.2147 10.135 14.5504 7.58764 16.6234 5.74008C18.6964 3.89253 21.3647 2.87141 24.129 2.86782ZM23.4637 15.7735L30.1347 23.8611C30.1727 23.9066 30.2136 23.9498 30.2571 23.9901C28.6443 25.0381 26.7948 25.6558 24.8815 25.7856C22.9682 25.9154 21.0536 25.553 19.3165 24.7323C17.5795 23.9116 16.0768 22.6593 14.9488 21.0926C13.8208 19.5259 13.1044 17.6959 12.8665 15.7735H23.4637ZM49.6129 71.6981V73.1321H28.3871V71.6981H49.6129ZM35.8955 68.8302L37.9056 63.0943H39.9169L41.9271 68.8302H35.8955ZM75.1613 55.9245C75.1598 57.065 74.7107 58.1583 73.9125 58.9647C73.1143 59.7712 72.0321 60.2249 70.9032 60.2264H7.09677C5.96793 60.2249 4.88574 59.7712 4.08753 58.9647C3.28931 58.1583 2.84021 57.065 2.83871 55.9245V54.4905H75.1613V55.9245ZM75.1613 51.6226H2.83871V15.7735C2.84021 14.633 3.28931 13.5397 4.08753 12.7333C4.88574 11.9268 5.96793 11.4731 7.09677 11.4716H10.2211C9.8011 13.5547 9.84478 15.7061 10.349 17.7701C10.8532 19.834 11.8054 21.7589 13.1365 23.4054C14.4677 25.0518 16.1445 26.3786 18.0457 27.2898C19.9469 28.2009 22.0248 28.6736 24.129 28.6736C26.2333 28.6736 28.3112 28.2009 30.2123 27.2898C32.1135 26.3786 33.7904 25.0518 35.1215 23.4054C36.4527 21.7589 37.4048 19.834 37.9091 17.7701C38.4133 15.7061 38.457 13.5547 38.0369 11.4716H70.9032C72.0321 11.4731 73.1143 11.9268 73.9125 12.7333C74.7107 13.5397 75.1598 14.633 75.1613 15.7735V51.6226Z" fill="#009F90"/>
</svg>
