<svg width="69" height="76" viewBox="0 0 69 76" fill="none" xmlns="http://www.w3.org/2000/svg">
<path d="M44.7224 15.2H24.2778C20.7511 15.2042 17.8932 18.0372 17.8888 21.5334V39.2668C17.893 42.7628 20.751 45.5958 24.2778 45.6001H44.7222C48.2489 45.596 51.1068 42.7629 51.1112 39.2668V21.5334C51.107 18.0372 48.249 15.2042 44.7224 15.2ZM48.5557 39.2666C48.5557 41.3652 46.8394 43.0666 44.7224 43.0666H24.2778C22.1608 43.0666 20.4444 41.3652 20.4444 39.2666V21.5334C20.4444 19.4348 22.1606 17.7334 24.2778 17.7334H44.7222C46.8392 17.7334 48.5556 19.4346 48.5556 21.5334V39.2666H48.5557Z" fill="#009F90"/>
<path d="M24.2778 22.8H26.8334C27.5391 22.8 28.1111 22.2328 28.1111 21.5334C28.1111 20.8339 27.5391 20.2668 26.8334 20.2668H24.2778C23.5721 20.2668 23 20.8338 23 21.5334C23 22.233 23.5722 22.8 24.2778 22.8Z" fill="#009F90"/>
<path d="M31.9445 22.8H42.1668C42.8725 22.8 43.4445 22.2328 43.4445 21.5334C43.4445 20.8339 42.8725 20.2668 42.1668 20.2668H31.9445C31.2387 20.2668 30.6667 20.8338 30.6667 21.5334C30.6667 22.233 31.2389 22.8 31.9445 22.8Z" fill="#009F90"/>
<path d="M42.1668 30.4H39.6111C38.9054 30.4 38.3334 30.9672 38.3334 31.6666C38.3334 32.3662 38.9056 32.9332 39.6111 32.9332H42.1668C42.8725 32.9332 43.4445 32.3661 43.4445 31.6666C43.4445 30.9672 42.8725 30.4 42.1668 30.4Z" fill="#009F90"/>
<path d="M34.5001 30.4H24.2778C23.5721 30.4 23 30.9672 23 31.6666C23 32.3662 23.5721 32.9332 24.2778 32.9332H34.5001C35.2058 32.9332 35.7778 32.3661 35.7778 31.6666C35.7778 30.9672 35.2058 30.4 34.5001 30.4Z" fill="#009F90"/>
<path d="M44.7224 25.3334H24.2778C23.5721 25.3334 23 25.9004 23 26.6C23 27.2996 23.5721 27.8666 24.2778 27.8666H44.7222C45.4279 27.8666 46 27.2996 46 26.6C46 25.9004 45.4279 25.3334 44.7224 25.3334Z" fill="#009F90"/>
<path d="M6.38896 46.8666H7.66669V53.2C7.66669 55.2986 9.38301 57 11.5 57H21.7223C22.428 57 23 56.433 23 55.7334C23 55.0338 22.428 54.4668 21.7223 54.4668H11.5C10.7943 54.4668 10.2223 53.8997 10.2223 53.2001V46.8668H12.7779C12.7779 48.9654 14.4941 50.6668 16.6112 50.6668H26.8334V59.5334C26.8334 60.233 27.4054 60.8 28.1111 60.8C28.8168 60.8 29.3889 60.233 29.3889 59.5334V50.6668H39.6111V59.5334C39.6111 60.233 40.1832 60.8 40.8889 60.8C41.5946 60.8 42.1666 60.233 42.1666 59.5334V50.6668H52.3889C54.5059 50.6668 56.2222 48.9654 56.2222 46.8668H62.6112C65.434 46.8668 67.7223 44.5983 67.7223 41.8002V29.1335C67.7223 26.3353 65.434 24.0669 62.6112 24.0669H61.3335V7.6C61.3293 3.40441 57.8992 0.00415625 53.6668 0H15.3334C11.101 0.00415625 7.67089 3.40441 7.66669 7.6V24.0666H6.38896C3.56622 24.0666 1.27789 26.335 1.27789 29.1332V41.8C1.27774 44.5982 3.56607 46.8666 6.38896 46.8666ZM53.6668 46.8666C53.6668 47.5662 53.0948 48.1332 52.3891 48.1332H16.6111C15.9054 48.1332 15.3334 47.5662 15.3334 46.8666V13.9334C15.3334 13.2338 15.9054 12.6668 16.6111 12.6668H52.3889C53.0946 12.6668 53.6666 13.2339 53.6666 13.9334V46.8666H53.6668ZM62.6112 26.6C64.0227 26.6 65.1668 27.7342 65.1668 29.1334V41.8C65.1668 43.1992 64.0227 44.3334 62.6112 44.3334H56.2222V26.6H62.6112ZM10.2223 7.6C10.2223 4.80181 12.5106 2.53338 15.3334 2.53338H53.6668C56.4895 2.53338 58.7779 4.80181 58.7779 7.6V24.0666H56.2222V13.9334C56.2222 11.8346 54.5061 10.1334 52.3889 10.1334H16.6111C14.4941 10.1334 12.7778 11.8346 12.7778 13.9334V24.0668H10.2223V7.6ZM3.83335 29.1334C3.83335 27.7342 4.97751 26.6 6.38896 26.6H12.7779V44.3334H6.38896C4.97751 44.3334 3.83335 43.1992 3.83335 41.8V29.1334Z" fill="#009F90"/>
<path d="M60.0557 59.5334H47.278C46.5723 59.5334 46.0003 60.1004 46.0003 60.8V67.6171L35.0713 62.1996C34.7118 62.0215 34.2886 62.0215 33.929 62.1996L23 67.6171V60.8C23 60.1004 22.428 59.5334 21.7223 59.5334H8.94442C4.00689 59.5389 0.00569012 63.5054 0 68.4V74.7334C0 75.433 0.572006 76 1.27773 76H67.7223C68.428 76 69 75.433 69 74.7334V68.4C68.9945 63.5054 64.9933 59.5389 60.0557 59.5334ZM66.4445 73.4666H2.55561V68.4C2.5598 64.904 5.41774 62.0709 8.94456 62.0666H20.4446V69.6666C20.4422 70.1067 20.6704 70.5167 21.0474 70.7492C21.4245 70.9816 21.8963 71.0034 22.2934 70.8066L34.5001 64.7495L46.7067 70.8066C47.104 71.0034 47.5757 70.9816 47.9527 70.7492C48.3298 70.5167 48.5581 70.1069 48.5556 69.6666V62.0666H60.0556C63.5823 62.0708 66.4402 64.9038 66.4445 68.4V73.4666Z" fill="#009F90"/>
</svg>
