<svg width="552" height="552" viewBox="0 0 552 552" fill="none" xmlns="http://www.w3.org/2000/svg">
<path d="M276 536.185L333.819 478.366M406.093 478.366C425.261 478.366 443.644 470.752 457.198 457.198C470.752 443.644 478.366 425.261 478.366 406.093C478.366 386.925 470.752 368.541 457.198 354.987C443.644 341.434 425.261 333.819 406.093 333.819C386.924 333.819 368.541 341.434 354.987 354.987C341.433 368.541 333.819 386.925 333.819 406.093C333.819 425.261 341.433 443.644 354.987 457.198C368.541 470.752 386.924 478.366 406.093 478.366V478.366ZM218.181 73.6337L276 15.8147L218.181 73.6337ZM145.907 218.181C165.076 218.181 183.459 210.567 197.013 197.013C210.567 183.459 218.181 165.076 218.181 145.907C218.181 126.739 210.567 108.356 197.013 94.8021C183.459 81.2482 165.076 73.6337 145.907 73.6337C126.739 73.6337 108.356 81.2482 94.8021 94.8021C81.2482 108.356 73.6337 126.739 73.6337 145.907C73.6337 165.076 81.2482 183.459 94.8021 197.013C108.356 210.567 126.739 218.181 145.907 218.181V218.181ZM160.362 391.638L391.638 160.362L160.362 391.638ZM88.0884 536.185C107.257 536.185 125.64 528.571 139.194 515.017C152.748 501.463 160.362 483.08 160.362 463.912C160.362 444.743 152.748 426.36 139.194 412.806C125.64 399.252 107.257 391.638 88.0884 391.638C68.9202 391.638 50.5371 399.252 36.9832 412.806C23.4292 426.36 15.8147 444.743 15.8147 463.912C15.8147 483.08 23.4292 501.463 36.9832 515.017C50.5371 528.571 68.9202 536.185 88.0884 536.185V536.185ZM463.912 160.362C483.08 160.362 501.463 152.748 515.017 139.194C528.571 125.64 536.185 107.257 536.185 88.0884C536.185 68.9202 528.571 50.5371 515.017 36.9832C501.463 23.4292 483.08 15.8147 463.912 15.8147C444.743 15.8147 426.36 23.4292 412.806 36.9832C399.252 50.5371 391.638 68.9202 391.638 88.0884C391.638 107.257 399.252 125.64 412.806 139.194C426.36 152.748 444.743 160.362 463.912 160.362Z" stroke="url(#paint0_linear)" stroke-width="30" stroke-linecap="round" stroke-linejoin="round"/>
<defs>
<linearGradient id="paint0_linear" x1="276" y1="15.8147" x2="276" y2="536.185" gradientUnits="userSpaceOnUse">
<stop/>
<stop offset="1" stop-color="white" stop-opacity="0"/>
</linearGradient>
</defs>
</svg>
